<?xml version="1.0" standalone="no"?>
<!DOCTYPE svg PUBLIC "-//W3C//DTD SVG 1.1//EN" "http://www.w3.org/Graphics/SVG/1.1/DTD/svg11.dtd" >
<svg xmlns="http://www.w3.org/2000/svg" xmlns:xlink="http://www.w3.org/1999/xlink" version="1.1">
<metadata></metadata>
<defs>
<font id="uni_sansheavy_italic_caps" horiz-adv-x="1359" >
<font-face units-per-em="2048" ascent="1548" descent="-500" />
<missing-glyph horiz-adv-x="376" />
<glyph unicode="&#xfb01;" horiz-adv-x="1779" d="M27 0l202 1450h1010l-49 -348h-639l-37 -260h559l-47 -342h-559l-70 -500h-370zM1210 0l203 1450h367l-203 -1450h-367z" />
<glyph unicode="&#xfb02;" horiz-adv-x="2269" d="M27 0l202 1450h1010l-49 -348h-639l-37 -260h559l-47 -342h-559l-70 -500h-370zM1196 0l203 1450h368l-153 -1088h590l-50 -362h-958z" />
<glyph horiz-adv-x="0" />
<glyph horiz-adv-x="682" />
<glyph unicode=" "  horiz-adv-x="376" />
<glyph unicode="&#x09;" horiz-adv-x="376" />
<glyph unicode="&#xa0;" horiz-adv-x="376" />
<glyph unicode="!" horiz-adv-x="595" d="M35 182q12 86 79 146.5t152 60.5q86 0 138 -60.5t40 -146.5q-12 -85 -80.5 -143.5t-154.5 -58.5q-85 0 -135.5 58.5t-38.5 143.5zM84 451l123 1007h418l-164 -1007h-377z" />
<glyph unicode="&#x22;" horiz-adv-x="946" d="M127 858l84 594h354l-127 -594h-311zM547 858l84 594h354l-125 -594h-313z" />
<glyph unicode="#" horiz-adv-x="1357" d="M8 346l107 299h209q0 1 13 34t13 34h-211l101 311h239l139 330h324l-141 -330h86l141 330h338l-145 -330h139l-121 -311h-149l-27 -68h168l-113 -299h-194l-150 -348h-323l149 348h-86l-149 -348h-334l149 348h-172zM616 614h127q2 8 22.5 57.5t31.5 71.5h-125 q-1 -2 -14 -30t-25.5 -57.5t-16.5 -41.5z" />
<glyph unicode="$" horiz-adv-x="1165" d="M0 283l287 180q31 -53 61.5 -73.5t73.5 -27.5l29 199q-380 92 -324 453q32 163 154.5 270t289.5 143l19 121h264l-16 -118q107 -14 181.5 -69t137.5 -175l-268 -156q-25 61 -98 74l-31 -230q42 -11 77 -23t70.5 -28.5t62.5 -37.5t51.5 -47.5t39.5 -60t24 -73.5t8 -90 t-12 -108q-35 -158 -157.5 -262.5t-286.5 -143.5l-21 -133h-264l19 131q-123 4 -218 78.5t-153 206.5zM451 1010q-16 -93 59 -121l35 233q-39 -20 -64 -49.5t-30 -60.5v-2zM670 334q39 20 64 49.5t30 60.5v2q16 93 -62 121z" />
<glyph unicode="%" horiz-adv-x="1513" d="M45 8l1227 1557l205 -148l-1225 -1550zM119 1112q23 163 121 260.5t231 97.5q149 0 216 -94t44 -268q-24 -166 -124 -264.5t-236 -98.5q-146 0 -212 94t-40 273zM348 1110q-16 -121 53 -121q68 0 86 119q14 123 -51 123q-33 0 -57 -30.5t-31 -90.5zM811 354 q23 163 121 261t231 98q149 0 216 -94.5t44 -268.5q-24 -166 -124 -264t-236 -98q-146 0 -212 94t-40 272zM1040 352q-16 -121 54 -121q68 0 86 119q14 123 -52 123q-33 0 -57 -30.5t-31 -90.5z" />
<glyph unicode="&#x26;" horiz-adv-x="1386" d="M35 461q18 127 85 213t183 151q-52 63 -67.5 138.5t1.5 145.5t61 136t106.5 114.5t144.5 76.5t168 26q76 -2 143 -30t115.5 -75.5t71 -118t10.5 -153.5q-16 -117 -73 -195.5t-150 -137.5l100 -150l147 113l168 -262l-151 -111l225 -340h-430l-82 117 q-82 -64 -177.5 -96.5t-186 -32t-172.5 32.5t-140.5 90t-86.5 148.5t-13 199.5zM383 435.5q-1 -37.5 16 -70.5q31 -55 103 -55.5t131 55.5l-150 208q-46 -23 -72.5 -61.5t-27.5 -76zM561 1079q-3 -17 6 -40t19 -39.5t32 -47.5q56 34 84.5 64.5t34.5 68.5q5 36 -14.5 62.5 t-52.5 26.5q-39 0 -72 -28t-37 -67z" />
<glyph unicode="'" horiz-adv-x="524" d="M127 856l84 594h348l-115 -594h-317z" />
<glyph unicode="(" horiz-adv-x="655" d="M70 711q35 247 153.5 491t304.5 426l220 -158q-303 -374 -355.5 -770t144.5 -776l-285 -174q-123 218 -169 469.5t-13 491.5z" />
<glyph unicode=")" horiz-adv-x="643" d="M-76 -80q194 255 287.5 515.5t77 520.5t-151.5 492l256 156q135 -184 186 -417t17 -476q-33 -240 -148.5 -489.5t-302.5 -467.5z" />
<glyph unicode="*" horiz-adv-x="976" d="M102 1010l140 323l194 -98v219h336l-70 -217l228 92l49 -325l-234 -29l144 -160l-291 -203l-82 207l-135 -207l-248 199l191 172z" />
<glyph unicode="+" horiz-adv-x="1155" d="M33 483l49 348h358l47 349h347l-48 -349h344l-49 -348h-344l-49 -350h-346l49 350h-358z" />
<glyph unicode="," horiz-adv-x="587" d="M-170 -305l244 522h385l-277 -522h-352z" />
<glyph unicode="-" horiz-adv-x="827" d="M66 420l49 348h639l-49 -348h-639z" />
<glyph unicode="." horiz-adv-x="524" d="M0 195q12 85 79 143.5t152 58.5t137 -59t40 -143q-12 -86 -80.5 -146.5t-153.5 -60.5t-135.5 60.5t-38.5 146.5z" />
<glyph unicode="/" horiz-adv-x="1003" d="M-51 -27l825 1592l305 -113l-825 -1595z" />
<glyph unicode="0" horiz-adv-x="1218" d="M57 430l84 596q12 90 53.5 164.5t100.5 125.5t132 86.5t148.5 51.5t151.5 16t147.5 -16t135 -51.5t108 -86.5t64.5 -125.5t8 -164.5l-84 -596q-12 -89 -53.5 -164.5t-100 -127t-131.5 -88t-149 -53.5t-152 -17q-75 0 -146.5 17t-135 53.5t-108 88t-65 127t-8.5 164.5z M406 426q-9 -61 39 -98t118 -37q74 0 129.5 31t65.5 104l84 600q3 53 -46.5 89t-113.5 36q-67 0 -124 -35.5t-69 -89.5z" />
<glyph unicode="1" horiz-adv-x="763" d="M55 1044l443 406h276l-203 -1450h-329l135 973l-152 -96z" />
<glyph unicode="2" horiz-adv-x="1138" d="M-27 193l703 684q90 98 65 180q-18 58 -83 76q-84 24 -171 -36q-57 -38 -100 -106l-254 150q112 170 244.5 249.5t300.5 79.5q116 0 207 -37.5t144 -100.5t76 -142.5t11 -165.5q-15 -103 -76 -209t-161 -197l-363 -303l176 35h328l-49 -348h-934z" />
<glyph unicode="3" horiz-adv-x="1103" d="M-25 229l269 220q29 -60 87.5 -91.5t125.5 -31.5q77 0 136 34.5t66 90.5q8 58 -32.5 98.5t-116.5 40.5h-213l43 305h217q34 0 62 19.5t41.5 47.5t17.5 59t-10 54q-35 66 -121 66q-56 0 -115 -24.5t-102 -67.5l-187 188q106 111 234 172t258 61q140 0 246.5 -65.5 t150.5 -198.5v2q36 -115 -6 -241.5t-156 -192.5q48 -27 81.5 -71t47 -91t18.5 -98t-3 -92q-19 -137 -106 -240t-209.5 -153t-260.5 -49q-153 2 -279 62.5t-184 186.5z" />
<glyph unicode="4" horiz-adv-x="1150" d="M-16 530l804 920h302l-117 -838h110l-43 -297h-110l-43 -311h-350l43 311h-469zM391 608h256l55 369z" />
<glyph unicode="5" horiz-adv-x="1110" d="M6 256l297 201q24 -53 68.5 -82t93.5 -28.5t95.5 18t80.5 57t43 88.5q12 62 -3 110.5t-48.5 75t-81.5 35.5t-99.5 -1.5t-105 -43t-94.5 -82.5h-148l119 850l860 -2l-45 -324h-567l-22 -153q87 31 171 34t153 -19t125.5 -66t92.5 -104t50.5 -138t2.5 -164 q-14 -104 -59 -197.5t-118.5 -171t-185.5 -123.5t-247 -46q-131 0 -247.5 70t-180.5 206z" />
<glyph unicode="6" horiz-adv-x="1196" d="M55 436l82 582q30 208 194.5 330t383.5 122q98 0 185 -26.5t159 -87.5t102 -150l-276 -147q-24 50 -82 74t-123 24q-76 0 -130 -37t-63 -104l-20 -154q75 49 159.5 69.5t161.5 13t146 -41.5t117.5 -87.5t71 -130t10.5 -163.5l-13 -86q-15 -108 -72 -196.5t-139.5 -144 t-181 -85.5t-201.5 -30q-109 0 -200 29.5t-157 85t-96.5 143.5t-17.5 198zM406 424q-9 -56 41.5 -89.5t125.5 -33.5q70 0 130 34.5t67 88.5l14 108q10 68 -69 99q-78 30 -171 7q-97 -24 -119 -87l-5 -19z" />
<glyph unicode="7" horiz-adv-x="1101" d="M-37 0l723 1102h-553l49 348h936l72 -197l-834 -1253h-393z" />
<glyph unicode="8" horiz-adv-x="1202" d="M35 424q8 98 65 189t160 161q-60 43 -80.5 113.5t-11.5 146.5q14 97 57 174.5t99.5 125.5t126 79.5t132.5 44t122 12.5h28q74 0 139 -15.5t121.5 -50t93.5 -85.5t52.5 -128t1.5 -171q-7 -55 -51 -130t-107 -114q84 -47 114.5 -138.5t18.5 -180.5q-37 -229 -186 -349 t-400 -120h-28q-232 0 -357 123t-110 313zM398 404q30 -79 143 -82h34q115 0 172 80q46 64 27 133q-20 70 -94 91q-25 7 -55 7h-47q-97 3 -153.5 -73.5t-26.5 -155.5zM510 955.5q29 -70.5 123 -70.5q115 0 167 78q40 61 17 126q-22 65 -92 79q-16 3 -33 3h-30 q-89 -2 -135 -73.5t-17 -142z" />
<glyph unicode="9" horiz-adv-x="1204" d="M39 256l285 172q28 -61 82.5 -90t121.5 -29q84 0 145 37t70 96l21 154q-75 -49 -159.5 -69.5t-161.5 -13t-146 41.5t-117.5 87.5t-71 130t-10.5 163.5l13 86q12 87 51 161t96.5 126t129.5 89t151 54.5t161 17.5t156.5 -17.5t138 -54t107.5 -88.5t64.5 -126t9.5 -162 l-82 -582q-16 -108 -73.5 -196.5t-140.5 -145.5t-183 -87.5t-205 -30.5q-160 0 -284 70t-169 206zM446 926q-11 -73 76.5 -102.5t183.5 0.5t105 102l14 108q8 54 -42.5 84.5t-125.5 30.5q-73 0 -131 -30.5t-65 -84.5z" />
<glyph unicode=":" horiz-adv-x="561" d="M18 217q13 88 80.5 146.5t153.5 58.5t136.5 -58.5t37.5 -146.5q-10 -85 -78 -145t-153 -60t-136.5 60t-40.5 145zM102 805q10 84 79 142.5t155 58.5q85 0 135 -58t39 -143q-12 -86 -79 -146.5t-152 -60.5t-137 60.5t-40 146.5z" />
<glyph unicode=";" horiz-adv-x="598" d="M-106 -262l194 522h383l-260 -522h-317zM115 782q12 86 77.5 143.5t155.5 57.5q87 0 135.5 -57.5t36.5 -143.5q-12 -88 -77 -147.5t-152 -59.5q-90 0 -139 59t-37 148z" />
<glyph unicode="&#x3c;" horiz-adv-x="911" d="M33 487l30 224l818 481l-58 -408l-354 -186q113 -64 303 -178l-57 -408z" />
<glyph unicode="=" horiz-adv-x="1083" d="M43 236l45 319h889l-45 -319h-889zM100 653l45 318h889l-45 -318h-889z" />
<glyph unicode="&#x3e;" horiz-adv-x="913" d="M23 12l57 408l373 178l-322 186l57 408l684 -481l-30 -224z" />
<glyph unicode="?" horiz-adv-x="1005" d="M123 1196q57 86 131 147t149.5 90.5t154.5 35.5t149.5 -11.5t131 -57t102 -95.5t59.5 -132t6 -161q-21 -146 -127.5 -262.5t-282.5 -141.5l-53 -239h-307l45 467q85 -34 161.5 -26.5t132.5 56.5t66 123q11 71 -51 107.5t-148.5 16t-136.5 -94.5zM170 133q10 81 71 132.5 t140 51.5q78 0 124 -51.5t36 -132.5q-12 -78 -73.5 -132t-137.5 -54q-78 0 -125 54t-35 132z" />
<glyph unicode="@" horiz-adv-x="1556" d="M78 698q30 139 106 272.5t183.5 241t253.5 173t303 65.5q106 0 211 -27q128 -38 230 -125t142 -192q35 -89 31.5 -195.5t-35 -208.5t-94 -196t-145.5 -158q-57 -45 -135 -74.5t-152 -29.5q-88 0 -143 43q-68 -39 -150 -39q-161 0 -246.5 113t-60.5 282q17 127 86 241.5 t171.5 185.5t209.5 71q112 0 203 -82l43 43l143 -37q-40 69 -135 106t-191 37q-119 0 -225 -50t-179.5 -131.5t-121.5 -180.5t-62 -201q-22 -160 40 -276t190 -156t311 8l27 -196q-142 -43 -262 -43q-135 0 -249 52t-190.5 143.5t-106.5 227t-1 293.5zM654 569q7 -20 18 -37 q23 -32 78 -32q58 0 96 32l108 302q-79 98 -172 52q-69 -34 -110 -128q-46 -104 -18 -189zM1090 489q50 21 90.5 65.5t64.5 99.5t37 114t10.5 114t-18.5 95l-14 37z" />
<glyph unicode="A" horiz-adv-x="1323" d="M-102 0l708 1450h334l315 -1450h-393l-55 291h-387l-129 -291h-393zM549 616h217l-43 424h-14z" />
<glyph unicode="B" horiz-adv-x="1275" d="M27 0l202 1450h582q103 0 187 -30.5t140 -86.5t78 -140q13 -48 13 -101q0 -40 -8 -84q-11 -60 -59.5 -130t-125.5 -106q66 -36 106 -88t52 -108q9 -46 10 -87v-18q-2 -50 -18 -96q-113 -375 -568 -375h-591zM440 322h213q104 0 156 76q31 43 31 89q0 20 -6 40 q-20 69 -95 86q-21 5 -45 5h-213zM518 883h213q85 0 130 68q27 40 27 80q0 19 -6 38q-20 64 -96 71q-9 1 -18 1h-213z" />
<glyph unicode="C" horiz-adv-x="1187" d="M57 475l70 500q16 119 78.5 215t153 156t197.5 92t218 32q56 0 109 -9.5t108 -33.5t100 -61t84 -95.5t62 -133.5l-315 -121q-23 58 -79.5 87.5t-125.5 29.5q-82 -2 -147.5 -45t-75.5 -113l-70 -500q-2 -11 -2 -21q0 -54 46 -90q54 -42 134 -42q68 0 130 33t97 98 l299 -148q-228 -325 -569 -325q-87 0 -166 19.5t-146.5 60t-114.5 98.5q-48 57 -68 139q-13 50 -12 106q0 35 5 72z" />
<glyph unicode="D" horiz-adv-x="1300" d="M27 0l202 1450h543q112 0 207 -29t167 -86t106 -153q22 -63 22 -138q0 -38 -6 -79l-70 -488q-14 -97 -55.5 -177.5t-102 -135t-138 -92.5t-161 -55t-172.5 -17h-542zM442 344h187q76 0 134.5 37.5t65.5 95.5l70 488q1 8 1 15q0 50 -41 86q-47 42 -122 42h-186z" />
<glyph unicode="E" horiz-adv-x="1204" d="M27 0l202 1450h1010l-49 -346h-639l-31 -215h588l-45 -326h-588l-31 -217h639l-47 -346h-1009z" />
<glyph unicode="F" horiz-adv-x="1181" d="M27 0l202 1450h1010l-49 -348h-639l-37 -260h559l-47 -342h-559l-70 -500h-370z" />
<glyph unicode="G" horiz-adv-x="1275" d="M59 481l70 498q14 98 57.5 180.5t106 139t141.5 96t163.5 57.5t172.5 18q74 0 142.5 -16.5t132.5 -51t112.5 -96.5t73.5 -145l-328 -141q-16 62 -66.5 93.5t-115.5 31.5q-81 0 -148 -45.5t-77 -120.5l-70 -498q-2 -12 -2 -23q0 -63 47 -100q55 -43 143 -43q87 0 156.5 44 t79.5 122l8 62h-231l41 299h583l-49 -361q-17 -121 -79 -218.5t-151.5 -158t-195.5 -92.5t-217 -32q-87 0 -166.5 19.5t-147 61t-113.5 99.5t-66 141q-13 49 -13 104q0 37 6 76z" />
<glyph unicode="H" horiz-adv-x="1384" d="M27 0l202 1450h369l-78 -549h418l78 549h368l-202 -1450h-369l76 547h-418l-76 -547h-368z" />
<glyph unicode="I" horiz-adv-x="595" d="M27 0l202 1450h367l-203 -1450h-366z" />
<glyph unicode="J" horiz-adv-x="1198" d="M-25 426l357 72q3 -81 54.5 -122.5t123.5 -41.5q73 0 132.5 38.5t68.5 100.5l90 645h-330l47 332h692l-137 -977q-22 -152 -113 -266t-220.5 -170.5t-278.5 -56.5q-96 0 -182 27t-155.5 80t-109.5 141q-39 85 -39 193v5z" />
<glyph unicode="K" horiz-adv-x="1306" d="M27 0l202 1450h369l-76 -537l469 537h457l-674 -713l469 -737h-461l-303 518l-14 -16l-70 -502h-368z" />
<glyph unicode="L" horiz-adv-x="1099" d="M27 0l202 1450h369l-154 -1088h590l-49 -362h-958z" />
<glyph unicode="M" horiz-adv-x="1574" d="M27 0l202 1450h367l205 -709l407 709h367l-203 -1450h-368l59 418l61 293l-10 2l-260 -498h-252l-125 498l-8 -2l-18 -293l-58 -418h-366z" />
<glyph unicode="N" horiz-adv-x="1384" d="M27 0l202 1450h349l264 -619l82 -290l8 2l-4 250l92 657h364l-202 -1450h-371l-248 571l-86 291l-8 -2l4 -280l-80 -580h-366z" />
<glyph unicode="O" d="M57 477l72 496q18 121 82.5 218t158.5 156.5t204 91t225 31.5q92 0 175.5 -19.5t155 -60t121 -98.5t71.5 -140q14 -51 15 -107q0 -35 -6 -72l-71 -496q-14 -97 -58 -179t-108.5 -140t-146.5 -98.5t-172.5 -60t-186.5 -19.5q-92 0 -175.5 19.5t-155 60t-121 98.5 t-71.5 140q-13 50 -13 106q0 35 5 73zM424 477q-1 -10 -1 -20q-1 -60 53 -96q62 -42 153 -42q62 0 117.5 17.5t97 56.5t49.5 94l72 486q2 12 2 23q1 61 -51 98q-60 43 -156 43q-97 0 -175 -43.5t-89 -120.5z" />
<glyph unicode="P" horiz-adv-x="1267" d="M27 0l202 1450h580q128 0 224.5 -44.5t149.5 -119t75 -166.5q14 -61 14 -125q0 -33 -4 -67q-12 -104 -56 -194.5t-116 -160t-178 -109.5t-234 -40h-231l-60 -424h-366zM498 750h213h3q78 0 128 54t61 134q2 15 2 29q1 55 -29 93q-36 48 -114 48h-213z" />
<glyph unicode="Q" d="M57 477l72 496q18 121 82.5 218t158.5 156.5t204 91t225 31.5q92 0 175.5 -19.5t155 -60t121 -98.5t71.5 -140q14 -51 14 -107q0 -35 -5 -72l-71 -496q-20 -140 -111 -256l96 -115l-227 -192l-103 133q-152 -67 -327 -67q-92 0 -175.5 19.5t-155 60t-121 98.5t-71.5 140 q-13 50 -13 106q0 35 5 73zM424 477q-2 -12 -2 -23q0 -35 17 -64q22 -40 61.5 -59.5t88.5 -24.5q9 -1 19 -1q39 0 78 17l-102 122l227 177l86 -103l68 455q2 12 2 23q0 63 -53 100q-62 43 -156 43q-62 0 -117.5 -18t-96 -56.5t-48.5 -91.5z" />
<glyph unicode="R" horiz-adv-x="1316" d="M27 0l202 1450h580q114 0 206 -31t157 -91t94 -157q19 -64 19 -140q0 -39 -5 -81q-11 -79 -32 -141t-49 -106.5t-71 -82t-88 -64.5t-110 -58l348 -498h-457l-295 461h-65l-64 -461h-370zM506 776h215q80 0 130 50t58 118q1 13 1 25q0 55 -28 93q-36 46 -114 46h-215z" />
<glyph unicode="S" horiz-adv-x="1165" d="M-20 242l262 217q46 -66 126.5 -103t166.5 -37q78 0 133 28.5t65 82.5q6 32 -11.5 58t-53 42.5t-75 27t-87.5 17.5q-87 14 -163 55t-132 102.5t-80 149.5q-14 50 -14 104q0 40 8 83q20 107 76 187t137.5 125.5t174 67t196.5 21.5q145 0 261 -51.5t204 -179.5l-267 -184 q-43 50 -108.5 76t-132.5 28h-10q-67 1 -113 -25q-50 -28 -56 -81q-1 -8 -1 -15q0 -48 39 -77q45 -33 137 -54q45 -8 83.5 -17.5t80 -23.5t75 -30.5t66.5 -39.5t57 -50t42.5 -62.5t27.5 -77t9 -93t-11 -110.5q-39 -206 -204.5 -314.5t-408.5 -108.5q-139 0 -279.5 69 t-219.5 193z" />
<glyph unicode="T" horiz-adv-x="1206" d="M92 1116l49 336h1153l-49 -336h-391l-154 -1116h-370l153 1116h-391z" />
<glyph unicode="U" horiz-adv-x="1363" d="M84 489l135 961h371l-135 -961q-2 -14 -2 -27q0 -64 46 -102q55 -46 140 -45q87 0 153.5 45.5t77.5 128.5l136 961h370l-135 -961q-14 -99 -58 -183t-108 -143.5t-144.5 -101t-166.5 -61.5t-174 -20q-111 0 -208.5 32.5t-171 94t-108.5 160.5q-24 67 -24 144q0 38 6 78z " />
<glyph unicode="V" horiz-adv-x="1337" d="M94 1452h393l129 -709l21 -346h4l111 344l329 711h394l-725 -1452h-336z" />
<glyph unicode="W" horiz-adv-x="1869" d="M113 1450h381l73 -694l-4 -307h8l78 305l234 508h278l78 -510l4 -303h6l84 303l275 698h379l-621 -1450h-340l-74 401l-4 332h-6l-102 -330l-170 -403h-340z" />
<glyph unicode="X" horiz-adv-x="1343" d="M-94 0l508 723l-305 727h428l178 -496l323 496h426l-508 -727l306 -723h-426l-187 494l-315 -494h-428z" />
<glyph unicode="Y" horiz-adv-x="1337" d="M94 1450h426l189 -510l335 510h431l-631 -879l-80 -571h-367l80 571z" />
<glyph unicode="Z" horiz-adv-x="1234" d="M-41 135l762 975h-582l47 340h1069l48 -123l-766 -993l591 4l-47 -338h-1073z" />
<glyph unicode="[" horiz-adv-x="669" d="M-14 -205l231 1659h492l-47 -340h-142l-137 -981h141l-49 -338h-489z" />
<glyph unicode="\" horiz-adv-x="1032" d="M156 1456l346 115l401 -1579l-342 -111z" />
<glyph unicode="]" horiz-adv-x="671" d="M-37 -205l47 334h135l140 991h-138l48 334h491l-233 -1659h-490z" />
<glyph unicode="^" horiz-adv-x="1335" d="M84 827l594 621h201l432 -621h-424l-166 236l-227 -236h-410z" />
<glyph unicode="_" horiz-adv-x="1214" d="M-33 -276l47 346h1030l-47 -346h-1030z" />
<glyph unicode="`" horiz-adv-x="645" d="M111 1870h385l202 -326h-321z" />
<glyph unicode="a" horiz-adv-x="1323" d="M-102 0l708 1450h334l315 -1450h-393l-55 291h-387l-129 -291h-393zM549 616h217l-43 424h-14z" />
<glyph unicode="b" horiz-adv-x="1275" d="M27 0l202 1450h582q103 0 187 -30.5t140 -86.5t78 -140q13 -48 13 -101q0 -40 -8 -84q-11 -60 -59.5 -130t-125.5 -106q66 -36 106 -88t52 -108q9 -46 10 -87v-18q-2 -50 -18 -96q-113 -375 -568 -375h-591zM440 322h213q104 0 156 76q31 43 31 89q0 20 -6 40 q-20 69 -95 86q-21 5 -45 5h-213zM518 883h213q85 0 130 68q27 40 27 80q0 19 -6 38q-20 64 -96 71q-9 1 -18 1h-213z" />
<glyph unicode="c" horiz-adv-x="1187" d="M57 475l70 500q16 119 78.5 215t153 156t197.5 92t218 32q56 0 109 -9.5t108 -33.5t100 -61t84 -95.5t62 -133.5l-315 -121q-23 58 -79.5 87.5t-125.5 29.5q-82 -2 -147.5 -45t-75.5 -113l-70 -500q-2 -11 -2 -21q0 -54 46 -90q54 -42 134 -42q68 0 130 33t97 98 l299 -148q-228 -325 -569 -325q-87 0 -166 19.5t-146.5 60t-114.5 98.5q-48 57 -68 139q-13 50 -12 106q0 35 5 72z" />
<glyph unicode="d" horiz-adv-x="1300" d="M27 0l202 1450h543q112 0 207 -29t167 -86t106 -153q22 -63 22 -138q0 -38 -6 -79l-70 -488q-14 -97 -55.5 -177.5t-102 -135t-138 -92.5t-161 -55t-172.5 -17h-542zM442 344h187q76 0 134.5 37.5t65.5 95.5l70 488q1 8 1 15q0 50 -41 86q-47 42 -122 42h-186z" />
<glyph unicode="e" horiz-adv-x="1204" d="M27 0l202 1450h1010l-49 -346h-639l-31 -215h588l-45 -326h-588l-31 -217h639l-47 -346h-1009z" />
<glyph unicode="f" horiz-adv-x="1181" d="M27 0l202 1450h1010l-49 -348h-639l-37 -260h559l-47 -342h-559l-70 -500h-370z" />
<glyph unicode="g" horiz-adv-x="1275" d="M59 481l70 498q14 98 57.5 180.5t106 139t141.5 96t163.5 57.5t172.5 18q74 0 142.5 -16.5t132.5 -51t112.5 -96.5t73.5 -145l-328 -141q-16 62 -66.5 93.5t-115.5 31.5q-81 0 -148 -45.5t-77 -120.5l-70 -498q-2 -12 -2 -23q0 -63 47 -100q55 -43 143 -43q87 0 156.5 44 t79.5 122l8 62h-231l41 299h583l-49 -361q-17 -121 -79 -218.5t-151.5 -158t-195.5 -92.5t-217 -32q-87 0 -166.5 19.5t-147 61t-113.5 99.5t-66 141q-13 49 -13 104q0 37 6 76z" />
<glyph unicode="h" horiz-adv-x="1384" d="M27 0l202 1450h369l-78 -549h418l78 549h368l-202 -1450h-369l76 547h-418l-76 -547h-368z" />
<glyph unicode="i" horiz-adv-x="595" d="M27 0l202 1450h367l-203 -1450h-366z" />
<glyph unicode="j" horiz-adv-x="1198" d="M-25 426l357 72q3 -81 54.5 -122.5t123.5 -41.5q73 0 132.5 38.5t68.5 100.5l90 645h-330l47 332h692l-137 -977q-22 -152 -113 -266t-220.5 -170.5t-278.5 -56.5q-96 0 -182 27t-155.5 80t-109.5 141q-39 85 -39 193v5z" />
<glyph unicode="k" horiz-adv-x="1306" d="M27 0l202 1450h369l-76 -537l469 537h457l-674 -713l469 -737h-461l-303 518l-14 -16l-70 -502h-368z" />
<glyph unicode="l" horiz-adv-x="1099" d="M27 0l202 1450h369l-154 -1088h590l-49 -362h-958z" />
<glyph unicode="m" horiz-adv-x="1574" d="M27 0l202 1450h367l205 -709l407 709h367l-203 -1450h-368l59 418l61 293l-10 2l-260 -498h-252l-125 498l-8 -2l-18 -293l-58 -418h-366z" />
<glyph unicode="n" horiz-adv-x="1384" d="M27 0l202 1450h349l264 -619l82 -290l8 2l-4 250l92 657h364l-202 -1450h-371l-248 571l-86 291l-8 -2l4 -280l-80 -580h-366z" />
<glyph unicode="o" d="M57 477l72 496q18 121 82.5 218t158.5 156.5t204 91t225 31.5q92 0 175.5 -19.5t155 -60t121 -98.5t71.5 -140q14 -51 15 -107q0 -35 -6 -72l-71 -496q-14 -97 -58 -179t-108.5 -140t-146.5 -98.5t-172.5 -60t-186.5 -19.5q-92 0 -175.5 19.5t-155 60t-121 98.5 t-71.5 140q-13 50 -13 106q0 35 5 73zM424 477q-1 -10 -1 -20q-1 -60 53 -96q62 -42 153 -42q62 0 117.5 17.5t97 56.5t49.5 94l72 486q2 12 2 23q1 61 -51 98q-60 43 -156 43q-97 0 -175 -43.5t-89 -120.5z" />
<glyph unicode="p" horiz-adv-x="1267" d="M27 0l202 1450h580q128 0 224.5 -44.5t149.5 -119t75 -166.5q14 -60 14 -125q0 -33 -4 -67q-12 -104 -56 -194.5t-116 -160t-178 -109.5t-234 -40h-231l-60 -424h-366zM498 750h213h3q79 0 128 54q51 54 61 134q2 15 2 29q0 55 -29 93q-37 48 -114 48h-213z" />
<glyph unicode="q" d="M57 477l72 496q18 121 82.5 218t158.5 156.5t204 91t225 31.5q92 0 175.5 -19.5t155 -60t121 -98.5t71.5 -140q14 -51 14 -107q0 -35 -5 -72l-71 -496q-20 -140 -111 -256l96 -115l-227 -192l-103 133q-152 -67 -327 -67q-92 0 -175.5 19.5t-155 60t-121 98.5t-71.5 140 q-13 50 -13 106q0 35 5 73zM424 477q-2 -12 -2 -23q0 -35 17 -64q22 -40 61.5 -59.5t88.5 -24.5q9 -1 19 -1q39 0 78 17l-102 122l227 177l86 -103l68 455q2 12 2 23q0 63 -53 100q-62 43 -156 43q-62 0 -117.5 -18t-96 -56.5t-48.5 -91.5z" />
<glyph unicode="r" horiz-adv-x="1316" d="M27 0l202 1450h580q114 0 206 -31t157 -91t94 -157q19 -64 19 -140q0 -39 -5 -81q-11 -79 -32 -141t-49 -106.5t-71 -82t-88 -64.5t-110 -58l348 -498h-457l-295 461h-65l-64 -461h-370zM506 776h215q80 0 130 50t58 118q1 13 1 25q0 55 -28 93q-36 46 -114 46h-215z" />
<glyph unicode="s" horiz-adv-x="1165" d="M-20 242l262 217q46 -66 126.5 -103t166.5 -37q78 0 133 28.5t65 82.5q6 32 -11.5 58t-53 42.5t-75 27t-87.5 17.5q-87 14 -163 55t-132 102.5t-80 149.5q-14 50 -14 104q0 40 8 83q20 107 76 187t137.5 125.5t174 67t196.5 21.5q145 0 261 -51.5t204 -179.5l-267 -184 q-43 50 -108.5 76t-132.5 28h-10q-67 1 -113 -25q-50 -28 -56 -81q-1 -8 -1 -15q0 -48 39 -77q45 -33 137 -54q45 -8 83.5 -17.5t80 -23.5t75 -30.5t66.5 -39.5t57 -50t42.5 -62.5t27.5 -77t9 -93t-11 -110.5q-39 -206 -204.5 -314.5t-408.5 -108.5q-139 0 -279.5 69 t-219.5 193z" />
<glyph unicode="t" horiz-adv-x="1206" d="M92 1116l49 336h1153l-49 -336h-391l-154 -1116h-370l153 1116h-391z" />
<glyph unicode="u" horiz-adv-x="1363" d="M84 489l135 961h371l-135 -961q-2 -14 -2 -27q0 -64 46 -102q55 -46 140 -45q87 0 153.5 45.5t77.5 128.5l136 961h370l-135 -961q-14 -99 -58 -183t-108 -143.5t-144.5 -101t-166.5 -61.5t-174 -20q-111 0 -208.5 32.5t-171 94t-108.5 160.5q-24 67 -24 144q0 38 6 78z " />
<glyph unicode="v" horiz-adv-x="1337" d="M94 1452h393l129 -709l21 -346h4l111 344l329 711h394l-725 -1452h-336z" />
<glyph unicode="w" horiz-adv-x="1869" d="M113 1450h381l73 -694l-4 -307h8l78 305l234 508h278l78 -510l4 -303h6l84 303l275 698h379l-621 -1450h-340l-74 401l-4 332h-6l-102 -330l-170 -403h-340z" />
<glyph unicode="x" horiz-adv-x="1343" d="M-94 0l508 723l-305 727h428l178 -496l323 496h426l-508 -727l306 -723h-426l-187 494l-315 -494h-428z" />
<glyph unicode="y" horiz-adv-x="1337" d="M94 1450h426l189 -510l335 510h431l-631 -879l-80 -571h-367l80 571z" />
<glyph unicode="z" horiz-adv-x="1234" d="M-41 135l762 975h-582l47 340h1069l48 -123l-766 -993l591 4l-47 -338h-1073z" />
<glyph unicode="{" horiz-adv-x="714" d="M33 446l47 334q60 0 90 30t35 77l37 250q22 155 101.5 236t244.5 81h168l-47 -334h-121l-37 -264q-10 -69 -61.5 -143t-118.5 -99q65 -25 94 -94.5t18 -148.5l-34 -242h120l-47 -334h-184q-161 0 -212.5 79t-29.5 237l33 227q15 108 -96 108z" />
<glyph unicode="|" horiz-adv-x="548" d="M-23 -276l244 1759h346l-245 -1759h-345z" />
<glyph unicode="}" horiz-adv-x="700" d="M-39 -221l47 334h103l36 258q6 76 65 148.5t128 96.5q-61 30 -101 99.5t-24 140.5l37 260h-105l48 334h141q102 0 163.5 -22.5t85 -63.5t27 -100t-9.5 -131l-35 -246q-12 -107 99 -107l-48 -334q-111 0 -126 -108l-35 -244q-11 -78 -32 -132.5t-61 -97.5t-106.5 -64 t-161.5 -21h-135z" />
<glyph unicode="~" horiz-adv-x="1003" d="M45 590q189 233 352 233q47 0 91 -23.5t72.5 -47.5t59 -38t66 5.5t78.5 81.5l186 -174q-184 -252 -366 -252q-42 0 -82.5 20t-67.5 40.5t-56 33.5t-61.5 -2.5t-70.5 -67.5z" />
<glyph unicode="&#xa1;" horiz-adv-x="544" d="M-43 -377l135 973h350l-135 -973h-350zM102 852q12 86 77 143.5t153 57.5q87 0 137.5 -58t38.5 -143q-12 -89 -79 -147t-155 -58q-89 0 -136.5 57.5t-35.5 147.5z" />
<glyph unicode="&#xa2;" horiz-adv-x="980" d="M49 375l43 309q22 149 121.5 244.5t239.5 128.5l20 145h262l-20 -149q189 -61 219 -271l-303 -90q-3 46 -32.5 69.5t-64 22t-65.5 -26.5t-37 -65l-45 -323q-8 -59 41 -82q49 -22 105 8q43 24 65 72l289 -68q-104 -224 -320 -291l-20 -149h-262l20 143q-131 33 -204 128.5 t-52 244.5z" />
<glyph unicode="&#xa3;" horiz-adv-x="1083" d="M-12 0l45 324h160l30 229h-160l46 313h159l21 154q9 62 30.5 120.5t62 116.5t95 101t135.5 69.5t179 26.5q87 0 176 -42t151 -128l-231 -194q-34 45 -90 49.5t-102.5 -31.5t-55.5 -98l-21 -144h345l-45 -313h-345l-30 -229h422l-45 -324h-932z" />
<glyph unicode="&#xa4;" horiz-adv-x="1259" d="M31 350l106 101q-34 102 -16 227q17 114 82 227l-86 96l268 250l94 -108q109 47 228 47q113 0 217 -51l125 110l196 -248l-115 -98q39 -106 21 -225q-17 -121 -82 -229l86 -95l-266 -248l-94 109q-101 -49 -232 -49q-121 0 -215 47l-125 -104zM432 676q-12 -84 39 -143.5 t135 -59.5q82 0 150 59.5t80 143.5q12 87 -39 147t-133 60q-84 0 -152 -60t-80 -147z" />
<glyph unicode="&#xa5;" horiz-adv-x="1462" d="M154 1450h426l184 -553l340 553h430l-512 -711h145l-77 -221h-195l-8 -63h241l-77 -222h-195l-33 -233h-366l32 233h-223l76 222h178l8 63h-223l76 221h82z" />
<glyph unicode="&#xa6;" horiz-adv-x="559" d="M-12 -225l106 772h348l-108 -772h-346zM106 641l101 711h348l-100 -711h-349z" />
<glyph unicode="&#xa7;" horiz-adv-x="972" d="M-2 76l262 160q17 -32 46 -53t58.5 -26.5t57 -1.5t46 20.5t21.5 39.5q4 25 -19 48.5t-62.5 45.5t-87 46t-94.5 55t-84.5 67.5t-56.5 88.5t-11 112q19 143 133 217q-55 76 -41 178q17 115 88.5 203.5t168.5 132t202 43.5q99 0 176.5 -50.5t138.5 -166.5l-262 -145 q-20 44 -57.5 53t-68.5 -12.5t-36 -57.5q-4 -28 18.5 -51t60 -41.5t83.5 -38t90.5 -46.5t80 -61.5t53 -88.5t7.5 -121q-8 -59 -41 -113t-86 -92q64 -97 47 -217q-13 -98 -80 -183.5t-169.5 -136.5t-212.5 -51q-113 0 -212.5 63t-156.5 181zM369 688q5 -40 59 -63l154 -78 q29 27 32.5 52.5t-19 51.5t-65.5 52t-110 55q-56 -30 -51 -70z" />
<glyph unicode="&#xa8;" horiz-adv-x="913" d="M104 1712q10 75 68.5 126.5t132.5 51.5t118 -51.5t34 -126.5q-11 -72 -69.5 -123t-131.5 -51t-118 51t-34 123zM598 1712q11 76 68 127t133 51q75 0 119.5 -51.5t33.5 -126.5q-11 -72 -69 -123t-133 -51q-76 0 -119.5 50.5t-32.5 123.5z" />
<glyph unicode="&#xa9;" horiz-adv-x="1591" d="M74 719q28 198 150.5 367.5t306 268.5t382.5 99q148 0 276 -58.5t212.5 -157.5t124 -235t18.5 -284q-28 -200 -150.5 -369t-305.5 -267.5t-381 -98.5q-200 0 -355.5 98.5t-230.5 267.5t-47 369zM285 719q-20 -143 32.5 -264t164 -191.5t255.5 -70.5q142 0 272 70.5 t217 191.5t107 264q20 144 -32.5 264.5t-163 190t-252.5 69.5q-220 0 -394.5 -152.5t-205.5 -371.5zM401 600q-10 -67 4 -123.5t46.5 -96t79 -67t100.5 -40.5t114 -13q84 0 163 24t153.5 85t112.5 151l-187 74q-17 -38 -46 -66.5t-63.5 -42.5t-72 -18.5t-71.5 3.5t-61.5 24 t-43.5 43t-15 61l31 231q13 47 53.5 81t91 44.5t100 5t87 -39t45.5 -86.5l203 73q-19 132 -119.5 196t-231.5 64q-60 0 -118 -13t-112.5 -40.5t-98 -67t-73.5 -96t-40 -123.5z" />
<glyph unicode="&#xaa;" horiz-adv-x="759" d="M100 913q10 69 44.5 121t81 79t101 39.5t105 9.5t92.5 -17q5 53 -40 74t-108 8t-110 -51l-100 106q48 60 114.5 98.5t134 51t133 1.5t113.5 -44t73 -92.5t14 -135.5l-68 -477q-72 -19 -140.5 -30t-140 -13.5t-128.5 12t-100.5 44t-62.5 84.5t-8 132zM322 907 q-6 -40 18 -62t58 -22t67 6l20 136q-30 11 -64 11.5t-63.5 -18.5t-35.5 -51z" />
<glyph unicode="&#xab;" horiz-adv-x="1253" d="M35 588l395 485l272 -176l-253 -309l167 -314l-325 -176zM563 588l395 485l273 -176l-256 -313l172 -308l-326 -178z" />
<glyph unicode="&#xac;" horiz-adv-x="1177" d="M66 532l49 347h997l-88 -617h-344l39 270h-653z" />
<glyph unicode="&#xad;" horiz-adv-x="837" d="M57 330l49 350h642l-50 -350h-641z" />
<glyph unicode="&#xae;" horiz-adv-x="1591" d="M74 719q28 198 150.5 367.5t306 268.5t382.5 99q148 0 276 -58.5t212.5 -157.5t124 -235t18.5 -284q-28 -200 -150.5 -369t-305.5 -267.5t-381 -98.5q-200 0 -355.5 98.5t-230.5 267.5t-47 369zM293 719q-20 -141 32.5 -261.5t163 -190.5t252.5 -70q140 0 269.5 70 t216 190.5t106.5 261.5q20 142 -32.5 262t-162 189t-249.5 69q-142 0 -272 -69t-217 -189t-107 -262zM459 346l104 733h332q68 0 120 -21.5t80 -57.5t41.5 -80.5t5 -92.5t-29.5 -91.5t-60.5 -80t-90.5 -55.5l139 -254h-238l-125 240h-43l-35 -240h-200zM717 750h125 q58 0 82 49q21 43 -2 78q-19 28 -60 28h-123z" />
<glyph unicode="&#xaf;" horiz-adv-x="772" d="M102 1548l56 287h655l-55 -287h-656z" />
<glyph unicode="&#xb0;" horiz-adv-x="768" d="M119 1141q20 141 132.5 238.5t252.5 97.5q139 0 224 -98t65 -238q-20 -138 -133.5 -238t-249.5 -100q-140 0 -225.5 99.5t-65.5 238.5zM354 1137q-6 -42 19 -70.5t69 -28.5t77.5 28.5t39.5 70.5q5 43 -20 74.5t-68 31.5q-44 0 -78 -32t-39 -74z" />
<glyph unicode="&#xb1;" horiz-adv-x="1101" d="M6 27l49 344h924l-49 -344h-924zM106 717l50 348h282l37 270h348l-37 -270h289l-49 -348h-289l-39 -268h-348l39 268h-283z" />
<glyph unicode="&#xb2;" horiz-adv-x="811" d="M61 659l367 361q72 70 56 116q-11 33 -55 29q-60 -5 -110 -75l-165 161q139 179 342 179q148 0 226.5 -91.5t59.5 -220.5q-20 -141 -139 -231l-137 -115h244l-37 -268h-617z" />
<glyph unicode="&#xb3;" horiz-adv-x="757" d="M47 705l203 116q17 -42 64 -55t90 7t49 61q2 20 -11 37t-36 14h-105l29 205h102q30 0 45.5 29.5t2 58t-55.5 26.5q-32 -1 -62.5 -15.5t-48.5 -35.5l-137 131q77 72 136.5 105.5t136.5 37.5q58 3 109.5 -14t88.5 -48t57.5 -74.5t20.5 -90t-27 -98t-80 -96.5 q75 -37 96 -106.5t-5.5 -141t-85.5 -129.5q-91 -87 -212.5 -108.5t-224 28.5t-139.5 156z" />
<glyph unicode="&#xb4;" horiz-adv-x="589" d="M586 1538l223 326h385l-287 -326h-321z" />
<glyph unicode="&#xb5;" horiz-adv-x="1079" d="M-41 -352l197 1409h350l-90 -635q-9 -68 40 -94q44 -22 90 5q46 28 54 87l90 637h352l-145 -1061l-299 2v78q-66 -79 -131.5 -77.5t-99.5 71.5l-60 -422h-348z" />
<glyph unicode="&#xb6;" horiz-adv-x="1357" d="M90 930q13 94 57.5 180.5t115 156t174 111t225.5 41.5h688l-224 -1589h-344l176 1257h-81l-177 -1257h-344l86 616q-98 13 -172.5 59.5t-116.5 113t-58.5 146.5t-4.5 165z" />
<glyph unicode="&#xb7;" horiz-adv-x="536" d="M63 621q12 87 78 146.5t156 59.5q87 0 135.5 -59.5t36.5 -146.5q-12 -86 -77 -143.5t-152 -57.5q-90 0 -139.5 57.5t-37.5 143.5z" />
<glyph unicode="&#xb8;" horiz-adv-x="825" d="M188 -422l109 191q57 -37 106.5 -48.5t75.5 -2.5t33 28q15 40 -20 66t-123 26l151 244h266l-94 -154q47 -7 78 -30.5t44 -57.5t12 -75t-15 -84q-28 -88 -117.5 -144.5t-210.5 -56.5q-57 0 -94 4t-93 27t-108 67z" />
<glyph unicode="&#xb9;" horiz-adv-x="591" d="M88 1167l297 281h219l-127 -903h-274l76 536l-109 -57z" />
<glyph unicode="&#xba;" horiz-adv-x="837" d="M106 915l35 246q14 98 77.5 169t146 103.5t172.5 32.5q141 0 235 -80.5t74 -224.5l-35 -246q-14 -97 -77 -168t-146 -104t-172 -33q-66 0 -125.5 19.5t-105 56.5t-67.5 96.5t-12 132.5zM383 915q-5 -43 30.5 -61.5t75 -1t46.5 62.5l34 244q6 45 -29 64t-75 0.5t-47 -62.5 z" />
<glyph unicode="&#xbb;" horiz-adv-x="1234" d="M6 274l260 314l-168 309l320 178l262 -487l-395 -488zM520 276l256 312l-170 311l326 174l258 -485l-397 -490z" />
<glyph unicode="&#xbc;" horiz-adv-x="1701" d="M121 1180l84 -144l108 58l-75 -537h274l127 903h-219zM166 51l1065 1422l219 -144l-1065 -1421zM799 362l94 -184h330l-25 -178h275l24 178h74l33 240h-74l76 540h-232zM1108 410l195 192l8 -2l-31 -190h-172z" />
<glyph unicode="&#xbd;" horiz-adv-x="1755" d="M119 1180l84 -144l108 58l-75 -537h274l127 903h-219zM180 53l1065 1420l217 -144l-1067 -1421zM961 158l36 -152h596l37 260h-229l135 111q117 89 137 223q18 124 -61.5 212.5t-225.5 88.5q-201 0 -333 -172l164 -156q47 66 105 72q44 4 55 -27q16 -45 -54 -112z" />
<glyph unicode="&#xbe;" horiz-adv-x="1761" d="M57 713q29 -83 101 -133.5t158 -60.5t180.5 19.5t165.5 96.5q62 59 89.5 132.5t5 145t-101.5 109.5q56 46 84.5 99t28.5 101t-22 92.5t-60.5 76.5t-93 50t-115.5 15q-80 -4 -143.5 -39t-143.5 -108l146 -135q20 21 52 36.5t65 16.5q43 2 58 -28t-1 -60.5t-47 -30.5h-109 l-30 -211h110q24 3 37 -14.5t10 -38.5q-6 -42 -51 -62.5t-94 -7t-66 56.5zM291 53l1065 1420l211 -144l-1065 -1421zM899 350l88 -178h334l-23 -172h242l23 172h71l33 231h-72l74 523h-215zM1196 395l186 187l9 -2l-29 -185h-166z" />
<glyph unicode="&#xbf;" horiz-adv-x="999" d="M-35 12q-12 -85 6 -161t59 -132t101.5 -95.5t131 -57t149.5 -11.5t155 35.5t149.5 90.5t131.5 147l-184 178q-30 -45 -77 -71t-93 -28.5t-86.5 10t-63 44.5t-16.5 74q10 74 66 123t132.5 56.5t161.5 -26.5l45 459h-307l-53 -231q-175 -25 -281 -141.5t-127 -262.5z M430 891q10 78 71 132t138 54q78 0 125 -54t37 -132q-12 -81 -73 -132.5t-140 -51.5q-78 0 -124 52t-34 132z" />
<glyph unicode="&#xc0;" horiz-adv-x="1323" d="M-102 0l708 1450h334l315 -1450h-393l-55 291h-387l-129 -291h-393zM403 1870h385l203 -326h-321zM549 616h217l-43 424h-14z" />
<glyph unicode="&#xc1;" horiz-adv-x="1323" d="M-102 0l708 1450h334l315 -1450h-393l-55 291h-387l-129 -291h-393zM549 616h217l-43 424h-14zM553 1538l223 326h385l-287 -326h-321z" />
<glyph unicode="&#xc2;" horiz-adv-x="1323" d="M-102 0l708 1450h334l315 -1450h-393l-55 291h-387l-129 -291h-393zM313 1540l383 324h262l287 -324h-366l-86 100l-109 -100h-371zM549 616h217l-43 424h-14z" />
<glyph unicode="&#xc3;" horiz-adv-x="1323" d="M-102 0l708 1450h334l315 -1450h-393l-55 291h-387l-129 -291h-393zM391 1626q25 140 96.5 210.5t161.5 72.5q34 1 76 -14.5t75.5 -32.5t68 -28t66 2t56.5 54l189 -108q-27 -113 -91 -178t-137 -68q-50 -2 -101.5 16t-86.5 36t-70.5 28t-68 -8.5t-64.5 -73.5zM549 616 h217l-43 424h-14z" />
<glyph unicode="&#xc4;" horiz-adv-x="1323" d="M-102 0l708 1450h334l315 -1450h-393l-55 291h-387l-129 -291h-393zM383 1712q10 75 68.5 126.5t132.5 51.5t117.5 -51.5t33.5 -126.5q-11 -72 -69 -123t-131 -51t-118 51t-34 123zM549 616h217l-43 424h-14zM877 1712q11 76 67.5 127t132.5 51q75 0 119.5 -51.5 t34.5 -126.5q-11 -72 -69.5 -123t-133.5 -51q-76 0 -119 50.5t-32 123.5z" />
<glyph unicode="&#xc5;" horiz-adv-x="1323" d="M-102 0l692 1415q-34 33 -50 79.5t-13.5 95.5t24 97t57.5 86t91 61.5t120 23.5q95 0 154 -50t71.5 -119.5t-13 -145t-85.5 -124.5l309 -1419h-393l-55 291h-387l-129 -291h-393zM549 616h217l-43 424h-14zM709 1604q-2 -30 17 -54t54 -24q32 0 57 22t29 56q6 33 -14.5 55 t-52.5 22q-37 0 -60.5 -21t-29.5 -56z" />
<glyph unicode="&#xc6;" horiz-adv-x="1669" d="M-111 0l822 1450h993l-51 -360h-461l-27 -191h410l-49 -354h-410l-26 -195h460l-49 -350h-809l53 393h-221l-194 -393h-441zM662 707h147l59 368h-18z" />
<glyph unicode="&#xc7;" horiz-adv-x="1187" d="M57 475l70 500q16 119 78.5 215t153 156t197.5 92t218 32q56 0 109 -9.5t108 -33.5t100 -61t84 -95.5t62 -133.5l-315 -121q-23 58 -79.5 87.5t-125.5 29.5q-82 -2 -147.5 -45t-75.5 -113l-70 -500q-10 -68 44 -110.5t134 -42.5q68 0 130 33t97 98l299 -148 q-178 -252 -426 -309l-40 -68q47 -7 78 -30.5t43.5 -57.5t11.5 -75t-15 -84q-28 -88 -117 -144.5t-210 -56.5q-57 0 -94 4t-93 27t-108 67l108 191q57 -37 106.5 -48.5t75.5 -2.5t33 28q15 40 -20 66t-123 26l94 154q-88 16 -161 54t-127 97t-77.5 144.5t-9.5 187.5z" />
<glyph unicode="&#xc8;" horiz-adv-x="1204" d="M27 0l202 1450h1010l-49 -346h-639l-31 -215h588l-45 -326h-588l-31 -217h639l-47 -346h-1009zM381 1870h385l203 -326h-322z" />
<glyph unicode="&#xc9;" horiz-adv-x="1204" d="M27 0l202 1450h1010l-49 -346h-639l-31 -215h588l-45 -326h-588l-31 -217h639l-47 -346h-1009zM530 1538l224 326h385l-287 -326h-322z" />
<glyph unicode="&#xca;" horiz-adv-x="1204" d="M27 0l202 1450h1010l-49 -346h-639l-31 -215h588l-45 -326h-588l-31 -217h639l-47 -346h-1009zM291 1540l383 324h262l287 -324h-367l-86 100l-108 -100h-371z" />
<glyph unicode="&#xcb;" horiz-adv-x="1204" d="M27 0l202 1450h1010l-49 -346h-639l-31 -215h588l-45 -326h-588l-31 -217h639l-47 -346h-1009zM360 1712q10 75 68.5 126.5t132.5 51.5t118 -51.5t34 -126.5q-11 -72 -69.5 -123t-131.5 -51t-118 51t-34 123zM854 1712q11 76 68 127t133 51q75 0 119.5 -51.5t33.5 -126.5 q-11 -72 -69 -123t-133 -51q-76 0 -119.5 50.5t-32.5 123.5z" />
<glyph unicode="&#xcc;" horiz-adv-x="595" d="M27 0l202 1450h367l-203 -1450h-366zM51 1870h385l203 -326h-322z" />
<glyph unicode="&#xcd;" horiz-adv-x="595" d="M27 0l202 1450h367l-203 -1450h-366zM201 1538l223 326h385l-287 -326h-321z" />
<glyph unicode="&#xce;" horiz-adv-x="595" d="M27 0l202 1450h367l-203 -1450h-366zM37 1544l311 314h252l223 -314h-334l-49 84l-71 -84h-332z" />
<glyph unicode="&#xcf;" horiz-adv-x="595" d="M27 0l202 1450h367l-203 -1450h-366zM51 1712q10 75 68.5 126.5t132.5 51.5t117.5 -51.5t33.5 -126.5q-11 -72 -69 -123t-131 -51t-118 51t-34 123zM492 1712q11 76 67.5 127t132.5 51q75 0 119.5 -51.5t34.5 -126.5q-11 -72 -69.5 -123t-133.5 -51q-76 0 -119 50.5 t-32 123.5z" />
<glyph unicode="&#xd0;" horiz-adv-x="1314" d="M18 623l39 254h105l80 573h585q113 0 201.5 -28t152 -84.5t90 -150t9.5 -216.5l-70 -494q-34 -239 -193 -358t-392 -119h-586l84 623h-105zM459 360h215q73 0 117 29.5t51 87.5l69 494q9 59 -26.5 89t-108.5 30h-215l-29 -213h170l-38 -254h-170z" />
<glyph unicode="&#xd1;" horiz-adv-x="1384" d="M27 0l202 1450h349l264 -619l82 -290l8 2l-4 250l92 657h364l-202 -1450h-371l-248 571l-86 291l-8 -2l4 -280l-80 -580h-366zM412 1626q25 140 96.5 210.5t161.5 72.5q34 1 76 -14.5t75.5 -32.5t68 -28t66 2t56.5 54l188 -108q-27 -113 -90.5 -178t-136.5 -68 q-50 -2 -101.5 16t-86.5 36t-70.5 28t-68 -8.5t-64.5 -73.5z" />
<glyph unicode="&#xd2;" d="M57 477l72 496q18 121 82.5 218t158.5 156.5t204 91t225 31.5q92 0 175.5 -19.5t155 -60t121 -98.5t72 -140t8.5 -179l-71 -496q-14 -97 -58 -179t-108.5 -140t-146.5 -98.5t-172.5 -60t-186.5 -19.5q-92 0 -175.5 19.5t-155 60t-121 98.5t-71.5 140t-8 179zM424 477 q-10 -74 52.5 -116t152.5 -42q62 0 117.5 17.5t97 56.5t49.5 94l72 486q11 78 -49.5 121t-155.5 43q-97 0 -175 -43.5t-89 -120.5zM424 1884h385l203 -325h-322z" />
<glyph unicode="&#xd3;" d="M57 477l72 496q18 121 82.5 218t158.5 156.5t204 91t225 31.5q92 0 175.5 -19.5t155 -60t121 -98.5t72 -140t8.5 -179l-71 -496q-14 -97 -58 -179t-108.5 -140t-146.5 -98.5t-172.5 -60t-186.5 -19.5q-92 0 -175.5 19.5t-155 60t-121 98.5t-71.5 140t-8 179zM424 477 q-10 -74 52.5 -116t152.5 -42q62 0 117.5 17.5t97 56.5t49.5 94l72 486q11 78 -49.5 121t-155.5 43q-97 0 -175 -43.5t-89 -120.5zM573 1552l224 326h385l-287 -326h-322z" />
<glyph unicode="&#xd4;" d="M57 477l72 496q18 121 82.5 218t158.5 156.5t204 91t225 31.5q92 0 175.5 -19.5t155 -60t121 -98.5t72 -140t8.5 -179l-71 -496q-14 -97 -58 -179t-108.5 -140t-146.5 -98.5t-172.5 -60t-186.5 -19.5q-92 0 -175.5 19.5t-155 60t-121 98.5t-71.5 140t-8 179zM334 1554 l383 324h262l287 -324h-367l-86 101l-108 -101h-371zM424 477q-10 -74 52.5 -116t152.5 -42q62 0 117.5 17.5t97 56.5t49.5 94l72 486q11 78 -49.5 121t-155.5 43q-97 0 -175 -43.5t-89 -120.5z" />
<glyph unicode="&#xd5;" d="M57 477l72 496q18 121 82.5 218t158.5 156.5t204 91t225 31.5q92 0 175.5 -19.5t155 -60t121 -98.5t72 -140t8.5 -179l-71 -496q-14 -97 -58 -179t-108.5 -140t-146.5 -98.5t-172.5 -60t-186.5 -19.5q-92 0 -175.5 19.5t-155 60t-121 98.5t-71.5 140t-8 179zM412 1640 q25 140 96.5 210.5t161.5 72.5q34 1 76 -14.5t75.5 -32.5t68 -27.5t66 2.5t56.5 54l188 -109q-27 -113 -90.5 -178t-136.5 -68q-50 -2 -101.5 16t-86.5 36t-70.5 28t-68 -8.5t-64.5 -73.5zM424 477q-10 -74 52.5 -116t152.5 -42q62 0 117.5 17.5t97 56.5t49.5 94l72 486 q11 78 -49.5 121t-155.5 43q-97 0 -175 -43.5t-89 -120.5z" />
<glyph unicode="&#xd6;" d="M57 477l72 496q18 121 82.5 218t158.5 156.5t204 91t225 31.5q92 0 175.5 -19.5t155 -60t121 -98.5t72 -140t8.5 -179l-71 -496q-14 -97 -58 -179t-108.5 -140t-146.5 -98.5t-172.5 -60t-186.5 -19.5q-92 0 -175.5 19.5t-155 60t-121 98.5t-71.5 140t-8 179zM403 1726 q10 75 68.5 127t132.5 52t118 -52t34 -127q-11 -72 -69.5 -123t-131.5 -51t-118 51t-34 123zM424 477q-10 -74 52.5 -116t152.5 -42q62 0 117.5 17.5t97 56.5t49.5 94l72 486q11 78 -49.5 121t-155.5 43q-97 0 -175 -43.5t-89 -120.5zM897 1726q11 76 68 127.5t133 51.5 q75 0 119.5 -52t33.5 -127q-11 -72 -69 -123t-133 -51q-76 0 -119.5 50.5t-32.5 123.5z" />
<glyph unicode="&#xd7;" horiz-adv-x="1095" d="M20 350l279 246l-217 256l280 244l216 -252l286 250l207 -250l-276 -244l209 -246l-281 -245l-211 245q-39 -35 -139.5 -122t-147.5 -130z" />
<glyph unicode="&#xd8;" d="M55 -94l119 215q-149 136 -117 356l72 496q18 121 82.5 218t158.5 156.5t204 91t225 31.5q47 0 94 -6l108 201l332 -117l-119 -219q149 -136 117 -356l-71 -496q-14 -97 -58 -179t-108.5 -140t-146.5 -98.5t-172.5 -60t-186.5 -19.5q-47 0 -94 6l-113 -209zM424 477 q-10 -74 52.5 -116t152.5 -42q62 0 117.5 17.5t97 56.5t49.5 94l72 486q11 78 -49.5 121t-155.5 43q-97 0 -175 -43.5t-89 -120.5z" />
<glyph unicode="&#xd9;" horiz-adv-x="1363" d="M84 489l135 961h371l-135 -961q-11 -83 44 -128.5t140 -45.5q87 0 153.5 45.5t77.5 128.5l136 961h370l-135 -961q-14 -99 -58 -183t-108 -143.5t-144.5 -101t-166.5 -61.5t-174 -20q-111 0 -208.5 32.5t-171 94t-108.5 160.5t-18 222zM432 1870h385l203 -326h-322z" />
<glyph unicode="&#xda;" horiz-adv-x="1363" d="M84 489l135 961h371l-135 -961q-11 -83 44 -128.5t140 -45.5q87 0 153.5 45.5t77.5 128.5l136 961h370l-135 -961q-14 -99 -58 -183t-108 -143.5t-144.5 -101t-166.5 -61.5t-174 -20q-111 0 -208.5 32.5t-171 94t-108.5 160.5t-18 222zM582 1538l223 326h385l-287 -326 h-321z" />
<glyph unicode="&#xdb;" horiz-adv-x="1363" d="M84 489l135 961h371l-135 -961q-11 -83 44 -128.5t140 -45.5q87 0 153.5 45.5t77.5 128.5l136 961h370l-135 -961q-14 -99 -58 -183t-108 -143.5t-144.5 -101t-166.5 -61.5t-174 -20q-111 0 -208.5 32.5t-171 94t-108.5 160.5t-18 222zM342 1540l383 324h262l287 -324 h-367l-86 100l-108 -100h-371z" />
<glyph unicode="&#xdc;" horiz-adv-x="1363" d="M84 489l135 961h371l-135 -961q-11 -83 44 -128.5t140 -45.5q87 0 153.5 45.5t77.5 128.5l136 961h370l-135 -961q-14 -99 -58 -183t-108 -143.5t-144.5 -101t-166.5 -61.5t-174 -20q-111 0 -208.5 32.5t-171 94t-108.5 160.5t-18 222zM412 1712q10 75 68 126.5t132 51.5 t118 -51.5t34 -126.5q-11 -72 -69.5 -123t-131.5 -51t-117.5 51t-33.5 123zM905 1712q11 76 68 127t133 51q75 0 119.5 -51.5t34.5 -126.5q-11 -72 -69.5 -123t-133.5 -51q-76 0 -119.5 50.5t-32.5 123.5z" />
<glyph unicode="&#xdd;" horiz-adv-x="1337" d="M94 1450h426l189 -510l335 510h431l-631 -879l-80 -571h-367l80 571zM543 1538l223 326h385l-287 -326h-321z" />
<glyph unicode="&#xde;" horiz-adv-x="1138" d="M27 2l204 1462h371l-33 -231h21q288 0 421.5 -128t106.5 -364q-10 -91 -38 -164t-65 -123t-91.5 -86t-107.5 -56.5t-123 -32.5t-128.5 -15.5t-132.5 -3.5l-35 -258h-370zM479 584q258 -30 283 159q11 82 -50.5 125.5t-189.5 30.5z" />
<glyph unicode="&#xdf;" horiz-adv-x="1177" d="M10 0l146 1038q13 104 65 188t128.5 136t166 80t182.5 28q72 0 137.5 -16t120.5 -50.5t93 -83t54.5 -118.5t4.5 -153q-4 -35 -15.5 -71.5t-33 -79.5t-58.5 -84t-86 -71q84 -32 130.5 -97t52 -140.5t-20 -156t-78.5 -148.5q-71 -95 -188.5 -148t-241.5 -53q-71 0 -145 18 l45 324q87 -43 166 -5t90 118q7 57 -30 90t-101 33h-92l43 311q109 -23 172 48q47 53 39 119q-8 65 -66 85q-18 6 -41 6q-55 0 -98.5 -32.5t-50.5 -90.5l-144 -1024h-346z" />
<glyph unicode="&#xe0;" horiz-adv-x="1323" d="M-102 0l708 1450h334l315 -1450h-393l-55 291h-387l-129 -291h-393zM403 1870h385l203 -326h-321zM549 616h217l-43 424h-14z" />
<glyph unicode="&#xe1;" horiz-adv-x="1323" d="M-102 0l708 1450h334l315 -1450h-393l-55 291h-387l-129 -291h-393zM549 616h217l-43 424h-14zM553 1538l223 326h385l-287 -326h-321z" />
<glyph unicode="&#xe2;" horiz-adv-x="1323" d="M-102 0l708 1450h334l315 -1450h-393l-55 291h-387l-129 -291h-393zM313 1540l383 324h262l287 -324h-366l-86 100l-109 -100h-371zM549 616h217l-43 424h-14z" />
<glyph unicode="&#xe3;" horiz-adv-x="1323" d="M-102 0l708 1450h334l315 -1450h-393l-55 291h-387l-129 -291h-393zM391 1626q25 140 96.5 210.5t161.5 72.5q34 1 76 -14.5t75.5 -32.5t68 -28t66 2t56.5 54l189 -108q-27 -113 -91 -178t-137 -68q-50 -2 -101.5 16t-86.5 36t-70.5 28t-68 -8.5t-64.5 -73.5zM549 616 h217l-43 424h-14z" />
<glyph unicode="&#xe4;" horiz-adv-x="1323" d="M-102 0l708 1450h334l315 -1450h-393l-55 291h-387l-129 -291h-393zM383 1712q10 75 68.5 126.5t132.5 51.5t117.5 -51.5t33.5 -126.5q-11 -72 -69 -123t-131 -51t-118 51t-34 123zM549 616h217l-43 424h-14zM877 1712q11 76 67.5 127t132.5 51q75 0 119.5 -51.5 t34.5 -126.5q-11 -72 -69.5 -123t-133.5 -51q-76 0 -119 50.5t-32 123.5z" />
<glyph unicode="&#xe5;" horiz-adv-x="1323" d="M-102 0l692 1415q-34 33 -50 79.5t-13.5 95.5t24 97t57.5 86t91 61.5t120 23.5q95 0 154 -50t71.5 -119.5t-13 -145t-85.5 -124.5l309 -1419h-393l-55 291h-387l-129 -291h-393zM549 616h217l-43 424h-14zM709 1604q-2 -30 17 -54t54 -24q32 0 57 22t29 56q6 33 -14.5 55 t-52.5 22q-37 0 -60.5 -21t-29.5 -56z" />
<glyph unicode="&#xe6;" horiz-adv-x="1669" d="M-111 0l822 1450h993l-51 -360h-461l-27 -191h410l-49 -354h-410l-26 -195h460l-49 -350h-809l53 393h-221l-194 -393h-441zM662 707h147l59 368h-18z" />
<glyph unicode="&#xe7;" horiz-adv-x="1187" d="M57 475l70 500q16 119 78.5 215t153 156t197.5 92t218 32q56 0 109 -9.5t108 -33.5t100 -61t84 -95.5t62 -133.5l-315 -121q-23 58 -79.5 87.5t-125.5 29.5q-82 -2 -147.5 -45t-75.5 -113l-70 -500q-10 -68 44 -110.5t134 -42.5q68 0 130 33t97 98l299 -148 q-178 -252 -426 -309l-40 -68q47 -7 78 -30.5t43.5 -57.5t11.5 -75t-15 -84q-28 -88 -117 -144.5t-210 -56.5q-57 0 -94 4t-93 27t-108 67l108 191q57 -37 106.5 -48.5t75.5 -2.5t33 28q15 40 -20 66t-123 26l94 154q-88 16 -161 54t-127 97t-77.5 144.5t-9.5 187.5z" />
<glyph unicode="&#xe8;" horiz-adv-x="1204" d="M27 0l202 1450h1010l-49 -346h-639l-31 -215h588l-45 -326h-588l-31 -217h639l-47 -346h-1009zM381 1870h385l203 -326h-322z" />
<glyph unicode="&#xe9;" horiz-adv-x="1204" d="M27 0l202 1450h1010l-49 -346h-639l-31 -215h588l-45 -326h-588l-31 -217h639l-47 -346h-1009zM530 1538l224 326h385l-287 -326h-322z" />
<glyph unicode="&#xea;" horiz-adv-x="1204" d="M27 0l202 1450h1010l-49 -346h-639l-31 -215h588l-45 -326h-588l-31 -217h639l-47 -346h-1009zM291 1540l383 324h262l287 -324h-367l-86 100l-108 -100h-371z" />
<glyph unicode="&#xeb;" horiz-adv-x="1204" d="M27 0l202 1450h1010l-49 -346h-639l-31 -215h588l-45 -326h-588l-31 -217h639l-47 -346h-1009zM360 1712q10 75 68.5 126.5t132.5 51.5t118 -51.5t34 -126.5q-11 -72 -69.5 -123t-131.5 -51t-118 51t-34 123zM854 1712q11 76 68 127t133 51q75 0 119.5 -51.5t33.5 -126.5 q-11 -72 -69 -123t-133 -51q-76 0 -119.5 50.5t-32.5 123.5z" />
<glyph unicode="&#xec;" horiz-adv-x="595" d="M27 0l202 1450h367l-203 -1450h-366zM51 1870h385l203 -326h-322z" />
<glyph unicode="&#xed;" horiz-adv-x="595" d="M27 0l202 1450h367l-203 -1450h-366zM201 1538l223 326h385l-287 -326h-321z" />
<glyph unicode="&#xee;" horiz-adv-x="595" d="M27 0l202 1450h367l-203 -1450h-366zM37 1544l311 314h252l223 -314h-334l-49 84l-71 -84h-332z" />
<glyph unicode="&#xef;" horiz-adv-x="595" d="M27 0l202 1450h367l-203 -1450h-366zM51 1712q10 75 68.5 126.5t132.5 51.5t117.5 -51.5t33.5 -126.5q-11 -72 -69 -123t-131 -51t-118 51t-34 123zM492 1712q11 76 67.5 127t132.5 51q75 0 119.5 -51.5t34.5 -126.5q-11 -72 -69.5 -123t-133.5 -51q-76 0 -119 50.5 t-32 123.5z" />
<glyph unicode="&#xf0;" horiz-adv-x="1314" d="M18 623l39 254h105l80 573h585q113 0 201.5 -28t152 -84.5t90 -150t9.5 -216.5l-70 -494q-34 -239 -193 -358t-392 -119h-586l84 623h-105zM459 360h215q73 0 117 29.5t51 87.5l69 494q9 59 -26.5 89t-108.5 30h-215l-29 -213h170l-38 -254h-170z" />
<glyph unicode="&#xf1;" horiz-adv-x="1384" d="M27 0l202 1450h349l264 -619l82 -290l8 2l-4 250l92 657h364l-202 -1450h-371l-248 571l-86 291l-8 -2l4 -280l-80 -580h-366zM412 1626q25 140 96.5 210.5t161.5 72.5q34 1 76 -14.5t75.5 -32.5t68 -28t66 2t56.5 54l188 -108q-27 -113 -90.5 -178t-136.5 -68 q-50 -2 -101.5 16t-86.5 36t-70.5 28t-68 -8.5t-64.5 -73.5z" />
<glyph unicode="&#xf2;" d="M57 477l72 496q18 121 82.5 218t158.5 156.5t204 91t225 31.5q92 0 175.5 -19.5t155 -60t121 -98.5t72 -140t8.5 -179l-71 -496q-14 -97 -58 -179t-108.5 -140t-146.5 -98.5t-172.5 -60t-186.5 -19.5q-92 0 -175.5 19.5t-155 60t-121 98.5t-71.5 140t-8 179zM424 477 q-10 -74 52.5 -116t152.5 -42q62 0 117.5 17.5t97 56.5t49.5 94l72 486q11 78 -49.5 121t-155.5 43q-97 0 -175 -43.5t-89 -120.5zM424 1884h385l203 -325h-322z" />
<glyph unicode="&#xf3;" d="M57 477l72 496q18 121 82.5 218t158.5 156.5t204 91t225 31.5q92 0 175.5 -19.5t155 -60t121 -98.5t72 -140t8.5 -179l-71 -496q-14 -97 -58 -179t-108.5 -140t-146.5 -98.5t-172.5 -60t-186.5 -19.5q-92 0 -175.5 19.5t-155 60t-121 98.5t-71.5 140t-8 179zM424 477 q-10 -74 52.5 -116t152.5 -42q62 0 117.5 17.5t97 56.5t49.5 94l72 486q11 78 -49.5 121t-155.5 43q-97 0 -175 -43.5t-89 -120.5zM573 1552l224 326h385l-287 -326h-322z" />
<glyph unicode="&#xf4;" d="M57 477l72 496q18 121 82.5 218t158.5 156.5t204 91t225 31.5q92 0 175.5 -19.5t155 -60t121 -98.5t72 -140t8.5 -179l-71 -496q-14 -97 -58 -179t-108.5 -140t-146.5 -98.5t-172.5 -60t-186.5 -19.5q-92 0 -175.5 19.5t-155 60t-121 98.5t-71.5 140t-8 179zM334 1554 l383 324h262l287 -324h-367l-86 101l-108 -101h-371zM424 477q-10 -74 52.5 -116t152.5 -42q62 0 117.5 17.5t97 56.5t49.5 94l72 486q11 78 -49.5 121t-155.5 43q-97 0 -175 -43.5t-89 -120.5z" />
<glyph unicode="&#xf5;" d="M57 477l72 496q18 121 82.5 218t158.5 156.5t204 91t225 31.5q92 0 175.5 -19.5t155 -60t121 -98.5t72 -140t8.5 -179l-71 -496q-14 -97 -58 -179t-108.5 -140t-146.5 -98.5t-172.5 -60t-186.5 -19.5q-92 0 -175.5 19.5t-155 60t-121 98.5t-71.5 140t-8 179zM412 1640 q25 140 96.5 210.5t161.5 72.5q34 1 76 -14.5t75.5 -32.5t68 -27.5t66 2.5t56.5 54l188 -109q-27 -113 -90.5 -178t-136.5 -68q-50 -2 -101.5 16t-86.5 36t-70.5 28t-68 -8.5t-64.5 -73.5zM424 477q-10 -74 52.5 -116t152.5 -42q62 0 117.5 17.5t97 56.5t49.5 94l72 486 q11 78 -49.5 121t-155.5 43q-97 0 -175 -43.5t-89 -120.5z" />
<glyph unicode="&#xf6;" d="M57 477l72 496q18 121 82.5 218t158.5 156.5t204 91t225 31.5q92 0 175.5 -19.5t155 -60t121 -98.5t72 -140t8.5 -179l-71 -496q-14 -97 -58 -179t-108.5 -140t-146.5 -98.5t-172.5 -60t-186.5 -19.5q-92 0 -175.5 19.5t-155 60t-121 98.5t-71.5 140t-8 179zM403 1726 q10 75 68.5 127t132.5 52t118 -52t34 -127q-11 -72 -69.5 -123t-131.5 -51t-118 51t-34 123zM424 477q-10 -74 52.5 -116t152.5 -42q62 0 117.5 17.5t97 56.5t49.5 94l72 486q11 78 -49.5 121t-155.5 43q-97 0 -175 -43.5t-89 -120.5zM897 1726q11 76 68 127.5t133 51.5 q75 0 119.5 -52t33.5 -127q-11 -72 -69 -123t-133 -51q-76 0 -119.5 50.5t-32.5 123.5z" />
<glyph unicode="&#xf7;" horiz-adv-x="1034" d="M31 455l49 352h344q-36 30 -53.5 75.5t-10.5 96.5q12 87 81 147t155 60q87 0 140.5 -60t41.5 -147q-7 -51 -38 -96.5t-76 -75.5h346l-49 -352h-343q38 -29 56.5 -74t11.5 -98q-12 -87 -81 -148t-154 -61q-87 0 -141 61t-42 148q14 110 117 172h-354z" />
<glyph unicode="&#xf8;" d="M55 -94l119 215q-149 136 -117 356l72 496q18 121 82.5 218t158.5 156.5t204 91t225 31.5q47 0 94 -6l108 201l332 -117l-119 -219q149 -136 117 -356l-71 -496q-14 -97 -58 -179t-108.5 -140t-146.5 -98.5t-172.5 -60t-186.5 -19.5q-47 0 -94 6l-113 -209zM424 477 q-10 -74 52.5 -116t152.5 -42q62 0 117.5 17.5t97 56.5t49.5 94l72 486q11 78 -49.5 121t-155.5 43q-97 0 -175 -43.5t-89 -120.5z" />
<glyph unicode="&#xf9;" horiz-adv-x="1363" d="M84 489l135 961h371l-135 -961q-11 -83 44 -128.5t140 -45.5q87 0 153.5 45.5t77.5 128.5l136 961h370l-135 -961q-14 -99 -58 -183t-108 -143.5t-144.5 -101t-166.5 -61.5t-174 -20q-111 0 -208.5 32.5t-171 94t-108.5 160.5t-18 222zM432 1870h385l203 -326h-322z" />
<glyph unicode="&#xfa;" horiz-adv-x="1363" d="M84 489l135 961h371l-135 -961q-11 -83 44 -128.5t140 -45.5q87 0 153.5 45.5t77.5 128.5l136 961h370l-135 -961q-14 -99 -58 -183t-108 -143.5t-144.5 -101t-166.5 -61.5t-174 -20q-111 0 -208.5 32.5t-171 94t-108.5 160.5t-18 222zM582 1538l223 326h385l-287 -326 h-321z" />
<glyph unicode="&#xfb;" horiz-adv-x="1363" d="M84 489l135 961h371l-135 -961q-11 -83 44 -128.5t140 -45.5q87 0 153.5 45.5t77.5 128.5l136 961h370l-135 -961q-14 -99 -58 -183t-108 -143.5t-144.5 -101t-166.5 -61.5t-174 -20q-111 0 -208.5 32.5t-171 94t-108.5 160.5t-18 222zM342 1540l383 324h262l287 -324 h-367l-86 100l-108 -100h-371z" />
<glyph unicode="&#xfc;" horiz-adv-x="1363" d="M84 489l135 961h371l-135 -961q-11 -83 44 -128.5t140 -45.5q87 0 153.5 45.5t77.5 128.5l136 961h370l-135 -961q-14 -99 -58 -183t-108 -143.5t-144.5 -101t-166.5 -61.5t-174 -20q-111 0 -208.5 32.5t-171 94t-108.5 160.5t-18 222zM412 1712q10 75 68 126.5t132 51.5 t118 -51.5t34 -126.5q-11 -72 -69.5 -123t-131.5 -51t-117.5 51t-33.5 123zM905 1712q11 76 68 127t133 51q75 0 119.5 -51.5t34.5 -126.5q-11 -72 -69.5 -123t-133.5 -51q-76 0 -119.5 50.5t-32.5 123.5z" />
<glyph unicode="&#xfd;" horiz-adv-x="1337" d="M94 1450h426l189 -510l335 510h431l-631 -879l-80 -571h-367l80 571zM543 1538l223 326h385l-287 -326h-321z" />
<glyph unicode="&#xfe;" horiz-adv-x="1138" d="M27 2l204 1462h371l-33 -231h21q288 0 421.5 -128t106.5 -364q-10 -91 -38 -164t-65 -123t-91.5 -86t-107.5 -56.5t-123 -32.5t-128.5 -15.5t-132.5 -3.5l-35 -258h-370zM479 584q258 -30 283 159q11 82 -50.5 125.5t-189.5 30.5z" />
<glyph unicode="&#xff;" horiz-adv-x="1337" d="M94 1450h426l189 -510l335 510h431l-631 -879l-80 -571h-367l80 571zM373 1712q10 75 68 126.5t132 51.5t118 -51.5t34 -126.5q-11 -72 -69.5 -123t-131.5 -51t-117.5 51t-33.5 123zM866 1712q11 76 68 127t133 51q75 0 119.5 -51.5t34.5 -126.5q-11 -72 -69.5 -123 t-133.5 -51q-76 0 -119.5 50.5t-32.5 123.5z" />
<glyph unicode="&#x152;" horiz-adv-x="1683" d="M57 430l80 567q30 211 172.5 342t333.5 131q143 0 246 -77l8 55h821l-49 -350h-487l-31 -209h434l-45 -334h-434l-31 -211h488l-47 -344h-822l8 72q-112 -92 -268 -92q-194 0 -299.5 126t-77.5 324zM428 444q-10 -77 35.5 -116t116.5 -39q47 0 92.5 16t68.5 41l107 752 q-59 53 -133 53q-90 0 -145 -39t-64 -117z" />
<glyph unicode="&#x153;" horiz-adv-x="1683" d="M57 430l80 567q30 211 172.5 342t333.5 131q143 0 246 -77l8 55h821l-49 -350h-487l-31 -209h434l-45 -334h-434l-31 -211h488l-47 -344h-822l8 72q-112 -92 -268 -92q-194 0 -299.5 126t-77.5 324zM428 444q-10 -77 35.5 -116t116.5 -39q47 0 92.5 16t68.5 41l107 752 q-59 53 -133 53q-90 0 -145 -39t-64 -117z" />
<glyph unicode="&#x178;" horiz-adv-x="1337" d="M94 1450h426l189 -510l335 510h431l-631 -879l-80 -571h-367l80 571zM373 1712q10 75 68 126.5t132 51.5t118 -51.5t34 -126.5q-11 -72 -69.5 -123t-131.5 -51t-117.5 51t-33.5 123zM866 1712q11 76 68 127t133 51q75 0 119.5 -51.5t34.5 -126.5q-11 -72 -69.5 -123 t-133.5 -51q-76 0 -119.5 50.5t-32.5 123.5z" />
<glyph unicode="&#x2c6;" horiz-adv-x="962" d="M84 1540l383 324h262l287 -324h-367l-86 100l-108 -100h-371z" />
<glyph unicode="&#x2dc;" horiz-adv-x="804" d="M80 1626q25 140 96.5 210.5t161.5 72.5q34 1 76 -14.5t75.5 -32.5t68 -28t66 2t56.5 54l188 -108q-27 -113 -90.5 -178t-136.5 -68q-50 -2 -101.5 16t-86.5 36t-70.5 28t-68 -8.5t-64.5 -73.5z" />
<glyph unicode="&#x2000;" horiz-adv-x="961" />
<glyph unicode="&#x2001;" horiz-adv-x="1923" />
<glyph unicode="&#x2002;" horiz-adv-x="961" />
<glyph unicode="&#x2003;" horiz-adv-x="1923" />
<glyph unicode="&#x2004;" horiz-adv-x="641" />
<glyph unicode="&#x2005;" horiz-adv-x="480" />
<glyph unicode="&#x2006;" horiz-adv-x="320" />
<glyph unicode="&#x2007;" horiz-adv-x="320" />
<glyph unicode="&#x2008;" horiz-adv-x="240" />
<glyph unicode="&#x2009;" horiz-adv-x="384" />
<glyph unicode="&#x200a;" horiz-adv-x="106" />
<glyph unicode="&#x2010;" horiz-adv-x="827" d="M66 420l49 348h639l-49 -348h-639z" />
<glyph unicode="&#x2011;" horiz-adv-x="827" d="M66 420l49 348h639l-49 -348h-639z" />
<glyph unicode="&#x2012;" horiz-adv-x="827" d="M66 420l49 348h639l-49 -348h-639z" />
<glyph unicode="&#x2013;" horiz-adv-x="1169" d="M66 420l49 346h981l-49 -346h-981z" />
<glyph unicode="&#x2014;" horiz-adv-x="1777" d="M66 420l49 346h1589l-49 -346h-1589z" />
<glyph unicode="&#x2018;" horiz-adv-x="638" d="M102 1008l293 444h322l-201 -444h-414z" />
<glyph unicode="&#x2019;" horiz-adv-x="614" d="M115 1024l178 422h414l-271 -422h-321z" />
<glyph unicode="&#x201a;" horiz-adv-x="606" d="M-131 -213l213 449h399l-303 -449h-309z" />
<glyph unicode="&#x201c;" horiz-adv-x="1118" d="M102 1008l293 444h322l-201 -444h-414zM582 1008l292 444h322l-201 -444h-413z" />
<glyph unicode="&#x201d;" horiz-adv-x="1087" d="M115 1024l178 422h414l-271 -422h-321zM588 1024l178 422h414l-271 -422h-321z" />
<glyph unicode="&#x201e;" horiz-adv-x="1058" d="M-133 -213l209 426h399l-299 -426h-309zM324 -213l208 426h402l-299 -426h-311z" />
<glyph unicode="&#x2022;" horiz-adv-x="856" d="M102 678q20 137 131 234.5t250 97.5q137 0 220 -98t63 -234q-20 -138 -130.5 -236t-246.5 -98q-139 0 -223 98t-64 236z" />
<glyph unicode="&#x2026;" horiz-adv-x="1607" d="M0 195q12 85 80 143.5t156 58.5q85 0 135.5 -58.5t38.5 -143.5q-12 -86 -79.5 -146.5t-152.5 -60.5q-87 0 -138.5 60t-39.5 147zM543 195q12 85 78 143.5t151 58.5q88 0 139 -58.5t39 -143.5q-12 -87 -80 -147t-155 -60q-85 0 -134.5 60t-37.5 147zM1081 195 q12 85 79 143.5t153 58.5q88 0 138 -58t38 -144q-12 -87 -79 -147t-155 -60q-86 0 -136 60t-38 147z" />
<glyph unicode="&#x202f;" horiz-adv-x="384" />
<glyph unicode="&#x2039;" horiz-adv-x="720" d="M37 588l395 487l270 -178l-253 -307q23 -45 82 -157t83 -161l-321 -174z" />
<glyph unicode="&#x203a;" horiz-adv-x="724" d="M8 272l256 316l-166 309l322 176l258 -485l-391 -488z" />
<glyph unicode="&#x205f;" horiz-adv-x="480" />
<glyph unicode="&#x20ac;" horiz-adv-x="1318" d="M27 457l71 221h80l8 63h-120l73 222h80v8q17 119 79.5 215.5t153 157.5t197 93.5t217.5 32.5q71 0 137 -17t130 -54t115.5 -105t80.5 -161l-315 -121q-21 52 -70 82.5t-106 33t-111.5 -12.5t-94 -53.5t-46.5 -90.5v-8h364l-80 -222h-317l-8 -63h364l-78 -221h-315 q1 -46 32.5 -79.5t81 -45t104 -6t106.5 39.5t82 89l299 -148q-74 -112 -176.5 -188.5t-200 -107.5t-193.5 -31q-107 0 -201.5 30.5t-167 88.5t-110 150.5t-25.5 207.5h-120z" />
<glyph unicode="&#x2122;" horiz-adv-x="1763" d="M125 1120l47 332h702l-47 -332h-184l-74 -528h-338l74 528h-180zM813 596l121 856h280l105 -270l182 270h273l-121 -856h-305l41 244l-107 -150h-51l-72 152l-31 -246h-315z" />
<glyph unicode="&#x25fc;" horiz-adv-x="1454" d="M0 0v1454h1454v-1454h-1454z" />
</font>
</defs>
</svg>
