<?xml version="1.0" standalone="no"?>
<!DOCTYPE svg PUBLIC "-//W3C//DTD SVG 1.1//EN" "http://www.w3.org/Graphics/SVG/1.1/DTD/svg11.dtd" >
<svg xmlns="http://www.w3.org/2000/svg" xmlns:xlink="http://www.w3.org/1999/xlink" version="1.1">
<metadata></metadata>
<defs>
<font id="uni_sansthin_italic_caps" horiz-adv-x="1396" >
<font-face units-per-em="2048" ascent="1548" descent="-500" />
<missing-glyph horiz-adv-x="503" />
<glyph unicode="&#xfb01;" horiz-adv-x="1536" d="M102 0l203 1450h836l-8 -51h-785l-94 -676h713l-6 -51h-713l-94 -672h-52zM1208 0l203 1450h51l-202 -1450h-52z" />
<glyph unicode="&#xfb02;" horiz-adv-x="2043" d="M102 0l203 1450h836l-8 -51h-785l-94 -676h713l-6 -51h-713l-94 -672h-52zM1147 0l203 1450h51l-197 -1399h725l-6 -51h-776z" />
<glyph horiz-adv-x="0" />
<glyph horiz-adv-x="682" />
<glyph unicode=" "  horiz-adv-x="503" />
<glyph unicode="&#x09;" horiz-adv-x="503" />
<glyph unicode="&#xa0;" horiz-adv-x="503" />
<glyph unicode="!" horiz-adv-x="395" d="M57 61q3 26 24.5 45t47.5 19t42 -19t13 -45q-5 -26 -26 -44.5t-47 -18.5t-42 18.5t-12 44.5zM123 270l166 1182h51l-166 -1182h-51z" />
<glyph unicode="&#x22;" horiz-adv-x="540" d="M221 1090l51 360h52l-76 -360h-27zM410 1090l51 360h51l-76 -360h-26z" />
<glyph unicode="#" horiz-adv-x="1484" d="M70 489l16 41h332l172 400h-377l18 43h379l209 479h47l-211 -479h412l207 479h51l-213 -479h334l-21 -43h-335l-170 -400h378l-18 -41h-379l-215 -489h-49l217 489h-410l-215 -489h-49l217 489h-327zM463 530h411l173 400h-412z" />
<glyph unicode="$" horiz-adv-x="1191" d="M59 211l52 20q52 -95 156.5 -148t230.5 -56l96 692q-72 16 -127.5 33t-116 49t-97 72.5t-54 103.5t-2.5 141q20 112 98 193t181.5 119t221.5 40l21 146h41l-21 -146q138 -5 242.5 -60t151.5 -163l-52 -18q-38 89 -133.5 138t-216.5 54l-90 -659q45 -9 84 -20t81.5 -27 t75.5 -35t66 -44t52.5 -55t35.5 -67.5t15 -81t-9 -96.5q-24 -108 -103 -189.5t-184 -122t-223 -44.5l-24 -156h-41l25 156q-141 3 -257 60t-176 171zM248 1118q-17 -75 4 -134.5t75 -100t119.5 -67t153.5 -46.5l90 651q-106 -2 -195 -32.5t-157.5 -100t-89.5 -170.5zM539 27 q102 4 190.5 37t159.5 103.5t98 168.5q11 40 8 76t-8 65t-22.5 54.5t-35.5 46t-46 38t-54 31t-61 25.5t-66 21t-69 18z" />
<glyph unicode="%" horiz-adv-x="1456" d="M109 -72l1230 1594l37 -25l-1229 -1595q-9 5 -22.5 15t-15.5 11zM160 1079q24 174 115.5 270.5t218.5 96.5q132 0 193 -97.5t36 -273.5q-23 -169 -116 -268.5t-218 -99.5q-136 0 -195.5 95.5t-33.5 276.5zM219 1079q-25 -167 18 -242t160 -75q114 0 180 76t89 237 t-25.5 239.5t-157.5 78.5q-113 0 -177.5 -78t-86.5 -236zM758 358q24 174 115.5 270.5t218.5 96.5q133 0 194.5 -97.5t36.5 -273.5q-24 -169 -116.5 -268.5t-217.5 -99.5q-136 0 -196 95.5t-35 276.5zM813 358q-23 -167 20.5 -242t159.5 -75q114 0 182 76t91 235 q23 161 -27 239.5t-160 78.5q-113 0 -178.5 -78t-87.5 -234z" />
<glyph unicode="&#x26;" horiz-adv-x="1236" d="M63 365q34 247 400 446q-70 98 -109 184.5t-28 165.5q20 132 125.5 212.5t238.5 80.5q116 0 191.5 -77.5t58.5 -192.5q-10 -64 -42.5 -120t-85 -100t-104 -75.5t-120.5 -65.5l-51 -28l352 -457l153 201l33 -19l-157 -211l188 -256h-59l-158 211q-121 -136 -234 -204 t-245 -68q-170 0 -270.5 102.5t-76.5 270.5zM115 369q-22 -153 63 -243.5t254 -90.5q116 0 225.5 73.5t202.5 184.5l-371 489q-341 -183 -374 -413zM377 1165q-18 -129 133 -336q80 37 135.5 68.5t112.5 74.5t90 94t41 110q15 102 -45 167.5t-166 65.5q-110 0 -198 -69.5 t-103 -174.5z" />
<glyph unicode="'" horiz-adv-x="360" d="M219 1087l51 363h56l-68 -363h-39z" />
<glyph unicode="(" horiz-adv-x="497" d="M131 702q31 227 128.5 448t252.5 411l33 -29q-146 -177 -238 -391t-125 -443q-31 -226 3 -442.5t134 -396.5l-43 -23q-105 190 -141.5 413t-3.5 453z" />
<glyph unicode=")" horiz-adv-x="499" d="M-37 -199q148 187 239 401t122 437q33 228 0.5 452t-127.5 420l32 19q1 0 13 6q102 -190 137 -421t2 -472q-35 -237 -130 -459t-249 -409zM229 1530l4 2z" />
<glyph unicode="*" horiz-adv-x="897" d="M195 1200q13 40 14 41l297 -104q36 291 39 315h41l-49 -317q91 27 156 48.5t104.5 36t56.5 19.5l6 -41l-315 -94l157 -266l-36 -23l-154 266q-39 -47 -121 -140t-110 -126l-29 27l240 262q-42 13 -92.5 29t-111.5 36.5t-93 30.5z" />
<glyph unicode="+" horiz-adv-x="1173" d="M106 674l7 47h473l65 463h45l-65 -463h456l-6 -47h-456l-66 -465h-45l66 465h-474z" />
<glyph unicode="," horiz-adv-x="391" d="M-57 -248l159 332h72l-186 -332h-45z" />
<glyph unicode="-" horiz-adv-x="858" d="M147 590l7 49h551l-7 -49h-551z" />
<glyph unicode="." horiz-adv-x="430" d="M76 57q5 26 26.5 45t47.5 19t42 -19t11 -45q-3 -26 -24.5 -44.5t-47.5 -18.5t-42 18.5t-13 44.5z" />
<glyph unicode="/" horiz-adv-x="765" d="M-25 -18l809 1499l35 -13q-787 -1470 -803 -1499q-33 9 -41 13z" />
<glyph unicode="0" horiz-adv-x="1277" d="M115 367l98 716q13 96 67.5 172t133 122t166.5 69.5t178 23.5q89 0 170 -23.5t145.5 -69.5t97 -122t19.5 -172l-98 -716q-13 -95 -67 -171t-132 -122t-165.5 -70t-176.5 -24t-171 24t-147 70t-98 122t-20 171zM166 367q-10 -72 8 -130t56 -95.5t92.5 -63t113 -36.5 t121.5 -11q79 0 155.5 18.5t147 56t119 105t61.5 156.5l99 716q10 72 -8 130.5t-56 96t-92.5 63t-112.5 36t-120 10.5q-80 0 -156.5 -18t-147.5 -55.5t-120 -105.5t-62 -157z" />
<glyph unicode="1" horiz-adv-x="589" d="M106 1126l343 324h69l-203 -1450h-49l195 1399l-326 -301z" />
<glyph unicode="2" horiz-adv-x="1116" d="M10 47l799 731q184 167 205 312q19 135 -76.5 229t-271.5 100q-132 4 -239.5 -50.5t-178.5 -160.5l-43 21q78 124 192 181.5t279 59.5q192 -1 302.5 -111t88.5 -272q-12 -81 -70.5 -172t-152.5 -176l-756 -688h836l-6 -51h-891z" />
<glyph unicode="3" horiz-adv-x="1157" d="M29 195l47 26q58 -100 151.5 -146t233.5 -46q84 0 165.5 23t150 66t116 112t59.5 153q26 186 -66 283.5t-278 95.5h-139l6 49h139q148 0 249 79t122 228q10 76 -14.5 136t-74.5 96t-113.5 54.5t-135.5 18.5q-113 0 -210.5 -39t-162.5 -118l-38 20q143 184 421 184 q65 0 124.5 -13t110.5 -41.5t86 -69t50.5 -99.5t5.5 -129q-31 -236 -246 -325q75 -29 124.5 -73.5t70.5 -97t27 -115t-6 -126.5q-16 -96 -69.5 -173.5t-130 -126.5t-166.5 -75t-183 -26q-313 0 -426 215z" />
<glyph unicode="4" horiz-adv-x="1148" d="M37 467l936 983h71l-139 -995h121l-8 -47h-121l-55 -408h-51l55 408h-787zM92 455h762l135 946z" />
<glyph unicode="5" horiz-adv-x="1173" d="M63 203l54 24q45 -86 147 -135t223 -49q92 0 175 28t153 83.5t118.5 147t65.5 210.5q17 114 -32 200.5t-140.5 129.5t-205.5 43q-116 0 -211.5 -21.5t-200.5 -72.5l-23 -3l93 662h827l-6 -47h-776l-78 -547q200 81 383 78q89 -1 169.5 -28.5t142.5 -78t93.5 -132.5 t18.5 -183q-17 -111 -56.5 -200t-93.5 -148.5t-123 -99t-143 -57t-156 -17.5q-142 0 -253 54t-165 159z" />
<glyph unicode="6" horiz-adv-x="1261" d="M115 369l98 714q13 93 66.5 169t132 122.5t171.5 71.5t189 24q144 0 252.5 -49t157.5 -147l-52 -25q-41 88 -138 130t-228 42q-120 0 -225 -36t-182 -115t-93 -189l-59 -426q47 66 110 113t129.5 70.5t125.5 33t120 9.5q76 -1 145 -16.5t127 -47.5t98.5 -76.5t59 -108 t8.5 -138.5l-16 -125q-12 -93 -64 -168t-128.5 -122t-168 -72t-186.5 -25q-97 -1 -182.5 24t-150.5 71.5t-97.5 122.5t-19.5 169zM166 371q-11 -83 17.5 -149.5t87 -107t135.5 -62t165 -21.5q117 0 220.5 36.5t179 115.5t90.5 188l16 121q11 82 -16.5 148t-83.5 107 t-131 62.5t-162 21.5q-89 0 -172 -21.5t-153.5 -62t-118 -106.5t-58.5 -149z" />
<glyph unicode="7" horiz-adv-x="1001" d="M45 0l961 1401h-828l6 49h858l23 -49l-963 -1401h-57z" />
<glyph unicode="8" horiz-adv-x="1257" d="M88 391q38 303 346 391q-78 27 -122.5 85t-55 120.5t-0.5 132.5q17 112 89.5 194t171 120.5t208.5 38.5h39q81 0 152 -23t125 -65.5t80 -111.5t14 -153q-6 -50 -23 -97t-47.5 -94t-81 -85t-115.5 -60q140 -40 201 -139t35 -254q-21 -127 -106 -222.5t-200 -142 t-241 -46.5h-39q-125 0 -227 46.5t-160.5 142t-42.5 222.5zM137 393q-13 -90 17 -162t88.5 -115.5t131 -66t150.5 -22.5h39q78 0 157 22.5t149.5 66t120.5 115.5t63 162q12 85 -2.5 150t-48.5 106t-88 67t-113.5 36t-132.5 10h-39q-440 0 -492 -369zM303 1120 q-10 -70 4.5 -125.5t45.5 -91t77.5 -58.5t97 -32.5t107.5 -9.5h39q73 0 137.5 16t124 51t99.5 99t52 151q11 76 -11.5 136.5t-70.5 96.5t-111 55t-136 19h-39q-99 0 -185.5 -31.5t-151 -103t-79.5 -172.5z" />
<glyph unicode="9" horiz-adv-x="1263" d="M113 184l53 25q41 -89 136.5 -134.5t223.5 -45.5q120 0 226 35t183.5 113.5t92.5 187.5l55 413q-56 -69 -118 -113.5t-128 -64t-117 -25.5t-118 -6q-96 1 -179.5 26t-146.5 71.5t-94.5 121.5t-19.5 168l16 127q12 93 64 168t128.5 122t168 72t186.5 25q97 1 182 -23 t150.5 -70t98.5 -122.5t20 -171.5l-97 -716q-13 -93 -66.5 -169t-132 -122.5t-171.5 -71.5t-189 -24q-145 0 -250.5 50.5t-156.5 153.5zM213 958q-9 -66 7.5 -122t53 -96t88.5 -67.5t114.5 -41t131.5 -13.5q120 0 226 36t183.5 115.5t92.5 188.5l16 123q11 83 -18 149.5 t-87.5 107t-136 62t-165.5 21.5q-117 0 -220.5 -36.5t-179 -115.5t-90.5 -188z" />
<glyph unicode=":" horiz-adv-x="432" d="M80 117q3 26 24.5 44.5t47.5 18.5t42 -18.5t13 -44.5q-5 -26 -26.5 -45t-47.5 -19t-42 19t-11 45zM188 891q3 26 24.5 44.5t47.5 18.5t42 -18.5t13 -44.5q-5 -26 -26 -45t-47 -19t-42 19t-12 45z" />
<glyph unicode=";" horiz-adv-x="563" d="M59 -203l131 295h84l-163 -295h-52zM264 860q3 26 24.5 45t47.5 19t42 -19t13 -45q-4 -26 -26 -44.5t-48 -18.5t-41.5 18.5t-11.5 44.5z" />
<glyph unicode="&#x3c;" horiz-adv-x="901" d="M90 594l8 53l715 389l-8 -53l-666 -362l563 -359l-6 -51q-103 66 -303.5 191t-302.5 192z" />
<glyph unicode="=" horiz-adv-x="1087" d="M135 455l6 45h764l-6 -45h-764zM174 737l6 45h764l-6 -45h-764z" />
<glyph unicode="&#x3e;" horiz-adv-x="903" d="M84 211l6 47l674 363q-57 36 -261 166t-310 196l8 53q105 -70 308.5 -197.5t301.5 -191.5l-8 -53z" />
<glyph unicode="?" horiz-adv-x="915" d="M160 1319q75 64 171.5 102.5t188.5 38.5q65 0 125 -15.5t110 -47.5t84.5 -76.5t48.5 -108t3 -137.5q-13 -94 -59 -173t-113 -132.5t-146.5 -86.5t-164.5 -42l-68 -395h-37l53 430q116 7 221 56.5t179 140t88 204.5q14 108 -31.5 186t-125 114t-179.5 36q-75 0 -164.5 -35 t-159.5 -88zM240 49q3 23 21.5 39t41.5 16q22 0 36 -16t11 -39t-22 -38t-41 -15q-23 0 -36.5 15t-10.5 38z" />
<glyph unicode="@" horiz-adv-x="1591" d="M123 616q28 204 146.5 370t294.5 258.5t372 92.5q185 0 324 -71.5t207.5 -203.5t45.5 -302q-14 -101 -55.5 -193t-97 -158.5t-120.5 -115t-129 -71.5t-118 -19q-126 8 -67 168q-151 -174 -322 -174q-112 0 -163 76t-35 188q15 102 59.5 200.5t110.5 178t157 128t189 48.5 q27 0 51 -4t53 -17.5t49 -35.5t32 -63.5t9 -96.5l10 -2l86 174h43l-256 -537q-44 -96 -44 -132q1 -54 71 -54q91 0 186.5 70.5t166 190t89.5 251.5q16 121 -20 223t-110.5 169t-179 104.5t-224.5 37.5q-147 0 -280.5 -53t-233.5 -144t-167 -215.5t-87 -265.5 q-18 -121 0 -221t61.5 -178t114.5 -131.5t157.5 -80t191.5 -23t216 37.5l6 -38q-116 -36 -227 -39.5t-204 23t-168.5 84t-123.5 138t-66.5 191t-0.5 237.5zM446 465q-14 -99 34 -163t141 -64q59 0 120.5 31t113.5 83t95.5 113.5t75.5 128.5q24 50 38 103t14.5 105 t-14.5 91.5t-55 62.5t-102 19q-92 1 -175.5 -48.5t-141 -127.5t-95 -165t-49.5 -169z" />
<glyph unicode="A" horiz-adv-x="1228" d="M-51 0l735 1450h92l328 -1450h-55l-119 518h-670l-256 -518h-55zM287 569h635l-189 842h-12z" />
<glyph unicode="B" horiz-adv-x="1284" d="M102 0l203 1450h531q166 0 260 -93q74 -74 74 -194q0 -31 -5 -65q-18 -123 -74 -200t-182 -128q66 -19 113 -50.5t71.5 -68.5t38.5 -81q12 -39 11 -79v-11q-2 -46 -8 -93q-17 -109 -62 -186t-114 -120t-149 -62t-179 -19h-529zM160 49h479h13q174 1 288 79 q118 82 143 261q6 42 6 79q0 125 -70 191q-89 84 -273 84h-9h-479zM264 793h479q149 0 250 76t123 227q4 30 4 57q0 106 -65 170q-82 80 -226 80h-479z" />
<glyph unicode="C" horiz-adv-x="1196" d="M127 385l92 680q18 129 100.5 222.5t201 138t259.5 44.5q144 0 263.5 -54t168.5 -154l-49 -31q-41 90 -149 140t-238 50q-117 0 -223.5 -38t-186.5 -121t-96 -197l-92 -680q-3 -25 -4 -48q0 -58 22 -107q30 -69 89 -111.5t136 -65t163 -22.5q118 0 244.5 48t193.5 134 l41 -23q-75 -101 -208 -155.5t-277 -54.5q-96 0 -182 26t-152 75t-98 128q-23 56 -23 122q0 26 4 54z" />
<glyph unicode="D" horiz-adv-x="1310" d="M102 0l203 1450h490q98 0 177.5 -23t137.5 -68.5t84 -121.5q17 -49 17 -109q0 -32 -5 -67l-94 -674q-14 -99 -61.5 -174.5t-118.5 -121.5t-156.5 -68.5t-183.5 -22.5h-490zM160 51h438q81 0 157 20.5t141 60t109 105.5t56 150l94 674q4 31 4 59q0 37 -7 69 q-13 57 -45.5 95.5t-82 65t-109 38t-129.5 11.5h-438z" />
<glyph unicode="E" horiz-adv-x="1155" d="M102 0l203 1450h862l-8 -51h-811l-90 -649h750l-9 -56h-749l-90 -643h811l-6 -51h-863z" />
<glyph unicode="F" horiz-adv-x="1103" d="M102 0l203 1450h836l-8 -51h-785l-94 -676h713l-6 -51h-713l-94 -672h-52z" />
<glyph unicode="G" horiz-adv-x="1294" d="M125 391l92 674q13 96 67.5 175t134 128t173 75.5t190.5 26.5q142 0 256 -54.5t162 -155.5l-51 -31q-39 95 -142.5 142.5t-236.5 47.5q-118 0 -223.5 -37.5t-184 -120t-94.5 -196.5l-92 -674q-4 -26 -4 -50q0 -59 21 -109q29 -70 88 -113.5t136 -66.5t165 -23 q87 0 171 23t156 66.5t121.5 114.5t61.5 158l36 260h-444l8 49h496l-45 -309q-14 -99 -69 -179t-135 -129.5t-173.5 -76t-190.5 -26.5t-183 26.5t-151 76t-97 129.5q-23 57 -23 123q0 27 4 56z" />
<glyph unicode="H" d="M102 0l203 1450h51l-98 -700h916l98 700h51l-203 -1450h-51l96 698h-915l-96 -698h-52z" />
<glyph unicode="I" horiz-adv-x="430" d="M102 0l203 1450h51l-202 -1450h-52z" />
<glyph unicode="J" horiz-adv-x="1173" d="M0 272l53 17q13 -66 50.5 -117.5t90 -82t111.5 -45.5t121 -15q82 0 161 22t147.5 64.5t115.5 111.5t59 156l144 1020h-484l6 47h535l-149 -1067q-14 -101 -66.5 -180t-129 -126.5t-165 -72t-182.5 -24.5q-159 0 -276.5 76.5t-141.5 215.5z" />
<glyph unicode="K" horiz-adv-x="1206" d="M102 0l203 1450h51l-123 -881l981 881h66l-768 -698l565 -752h-59l-547 715l-248 -217l-69 -498h-52z" />
<glyph unicode="L" horiz-adv-x="999" d="M102 0l203 1450h51l-196 -1399h725l-6 -51h-777z" />
<glyph unicode="M" horiz-adv-x="1630" d="M102 0l203 1450h109l352 -1174l682 1174h108l-202 -1450h-51l196 1413h-18l-690 -1184h-66l-358 1170l-19 -2l-194 -1397h-52z" />
<glyph unicode="N" horiz-adv-x="1372" d="M102 0l203 1450h80l666 -1401l196 1401h51l-202 -1450h-88l-656 1384l-196 -1384h-54z" />
<glyph unicode="O" d="M127 391l92 670q11 79 49.5 146.5t95.5 115t130.5 81.5t154.5 50t166 16q103 0 194.5 -26.5t161.5 -75.5t105 -129q26 -58 26 -126q0 -25 -4 -52l-92 -670q-13 -98 -70.5 -178t-141.5 -130t-183.5 -76.5t-202.5 -26.5t-194.5 26.5t-161.5 76.5t-104 130q-25 58 -25 126 q0 25 4 52zM178 391q-3 -24 -4 -47q0 -60 24 -111q32 -70 94.5 -113.5t145 -66t176.5 -22.5t183.5 23t166 66t128 113.5t63.5 157.5l92 670q4 26 4 51q1 61 -23 112q-32 71 -97.5 113t-148 63t-177.5 21q-95 -1 -182.5 -22.5t-163 -64t-126 -113t-63.5 -160.5z" />
<glyph unicode="P" horiz-adv-x="1230" d="M102 0l203 1450h512q107 -1 188 -40t125 -102q45 -64 63 -140q11 -47 11 -97q0 -30 -4 -61q-12 -81 -51 -156.5t-101 -137.5t-153.5 -99.5t-198.5 -38.5h-463l-79 -578h-52zM242 629h460q90 0 170 33.5t136.5 88t93.5 122.5t47 139q4 29 4 57q0 66 -23 128 q-33 88 -116.5 147t-202.5 59h-461z" />
<glyph unicode="Q" horiz-adv-x="1394" d="M127 391l92 670q13 99 69 178.5t138.5 129t182.5 75.5t206 26q103 0 194 -26.5t160.5 -75.5t104.5 -129q26 -58 26 -126q0 -25 -4 -52l-92 -670q-13 -91 -48.5 -149t-104.5 -121l90 -129l-43 -27l-88 125q-179 -110 -402 -110q-103 0 -194.5 26.5t-161 76.5t-104.5 130 q-25 58 -25 126q0 25 4 52zM178 391q-3 -23 -3 -46q0 -58 23 -109q31 -71 93.5 -115t145.5 -68t177 -24q201 0 371 102l-104 160l43 28l98 -157q112 80 131 229l92 670q3 24 3 46q0 60 -23 111q-32 71 -95.5 114t-146 66t-176.5 23q-95 -1 -182.5 -22.5t-163.5 -64 t-127 -113t-64 -160.5z" />
<glyph unicode="R" horiz-adv-x="1245" d="M102 0l203 1450h512q98 0 173.5 -20.5t131 -65t79.5 -122.5q16 -50 16 -113q0 -34 -5 -72q-59 -410 -505 -410h-78l399 -647h-59l-398 647h-329l-90 -647h-50zM248 692h465q201 0 312 87t138 276q6 40 6 75q0 130 -75 194q-92 80 -268 79h-13h-465z" />
<glyph unicode="S" horiz-adv-x="1181" d="M53 213l51 20q54 -98 163 -151t241 -53q77 0 150.5 19t138.5 55.5t114 97t70 137.5q8 38 8.5 72t-7 62t-19 52.5t-31 44.5t-40.5 37t-49 31t-54.5 25t-60.5 21.5t-63 18t-65 15.5q-74 16 -130 32.5t-119 49t-100.5 73t-56.5 104.5q-11 35 -11 75q0 32 7 67 q15 87 64 155.5t120.5 111t156 64t176.5 21.5q147 0 258 -55t161 -168l-51 -18q-41 94 -144.5 143t-232.5 49q-80 0 -152 -17.5t-135.5 -52.5t-108 -94.5t-60.5 -138.5q-7 -33 -8 -63q0 -40 14 -75q23 -61 80.5 -101.5t127 -67t162.5 -45.5q47 -10 87 -20.5t84 -26t78 -34 t68.5 -44t54.5 -55.5q21 -30 38 -68q17 -37 17 -79q0 -43 -9 -101q-24 -113 -104 -195.5t-192 -122.5t-242 -40q-143 0 -263.5 58t-181.5 175z" />
<glyph unicode="T" horiz-adv-x="1097" d="M145 1399l9 51h1017l-8 -51h-483l-195 -1399h-51l195 1399h-484z" />
<glyph unicode="U" horiz-adv-x="1376" d="M147 397l148 1053h51l-147 -1053q-4 -28 -4 -53q0 -58 20 -108q29 -72 88 -116t136 -67.5t165 -23.5q87 0 171 23.5t155.5 67.5t121 116t62.5 161l148 1053h51l-148 -1053q-14 -100 -69 -181t-134.5 -131.5t-173 -77.5t-190.5 -27t-183.5 27t-152 77.5t-97.5 131.5 q-22 56 -22 122q0 29 4 59z" />
<glyph unicode="V" horiz-adv-x="1224" d="M147 1450h58l321 -1403h13l708 1405h56l-732 -1452h-92z" />
<glyph unicode="W" horiz-adv-x="1894" d="M166 1450h55l213 -1395h10l553 1178h72l219 -1182h12l605 1399h55l-627 -1450h-90l-215 1184l-551 -1184h-92z" />
<glyph unicode="X" horiz-adv-x="1118" d="M-35 0l578 723l-373 727h57l353 -680l542 680h60l-580 -727l375 -723h-59l-349 688l-540 -688h-64z" />
<glyph unicode="Y" horiz-adv-x="1116" d="M150 1450h61l346 -817l590 817h63l-637 -875l-79 -575h-52l80 575z" />
<glyph unicode="Z" horiz-adv-x="1118" d="M-29 25l1127 1380h-891l6 45h942l14 -27l-1124 -1378h903l-6 -45h-952z" />
<glyph unicode="[" horiz-adv-x="483" d="M39 -246l250 1784h237l-6 -43h-188l-238 -1696h189l-7 -45h-237z" />
<glyph unicode="\" horiz-adv-x="790" d="M186 1518l41 14l410 -1577l-47 -14z" />
<glyph unicode="]" horiz-adv-x="483" d="M-39 -258l6 51h185l239 1696h-184l6 49h238l-252 -1796h-238z" />
<glyph unicode="^" horiz-adv-x="1032" d="M166 926l434 524h57q168 -311 299 -524h-55l-276 489l-404 -489h-55z" />
<glyph unicode="_" horiz-adv-x="1198" d="M27 -88l8 45h954l-8 -45h-954z" />
<glyph unicode="`" horiz-adv-x="430" d="M90 1765h72l96 -211h-51z" />
<glyph unicode="a" horiz-adv-x="1228" d="M-51 0l735 1450h92l328 -1450h-55l-119 518h-670l-256 -518h-55zM287 569h635l-189 842h-12z" />
<glyph unicode="b" horiz-adv-x="1284" d="M102 0l203 1450h531q166 0 260 -93q74 -74 74 -194q0 -31 -5 -65q-18 -123 -74 -200t-182 -128q66 -19 113 -50.5t71.5 -68.5t38.5 -81q12 -39 11 -79v-11q-2 -46 -8 -93q-17 -109 -62 -186t-114 -120t-149 -62t-179 -19h-529zM160 49h479h13q174 1 288 79 q118 82 143 261q6 42 6 79q0 125 -70 191q-89 84 -273 84h-9h-479zM264 793h479q149 0 250 76t123 227q4 30 4 57q0 106 -65 170q-82 80 -226 80h-479z" />
<glyph unicode="c" horiz-adv-x="1196" d="M127 385l92 680q18 129 100.5 222.5t201 138t259.5 44.5q144 0 263.5 -54t168.5 -154l-49 -31q-41 90 -149 140t-238 50q-117 0 -223.5 -38t-186.5 -121t-96 -197l-92 -680q-3 -25 -4 -48q0 -58 22 -107q30 -69 89 -111.5t136 -65t163 -22.5q118 0 244.5 48t193.5 134 l41 -23q-75 -101 -208 -155.5t-277 -54.5q-96 0 -182 26t-152 75t-98 128q-23 56 -23 122q0 26 4 54z" />
<glyph unicode="d" horiz-adv-x="1310" d="M102 0l203 1450h490q98 0 177.5 -23t137.5 -68.5t84 -121.5q17 -49 17 -109q0 -32 -5 -67l-94 -674q-14 -99 -61.5 -174.5t-118.5 -121.5t-156.5 -68.5t-183.5 -22.5h-490zM160 51h438q81 0 157 20.5t141 60t109 105.5t56 150l94 674q4 31 4 59q0 37 -7 69 q-13 57 -45.5 95.5t-82 65t-109 38t-129.5 11.5h-438z" />
<glyph unicode="e" horiz-adv-x="1155" d="M102 0l203 1450h862l-8 -51h-811l-90 -649h750l-9 -56h-749l-90 -643h811l-6 -51h-863z" />
<glyph unicode="f" horiz-adv-x="1103" d="M102 0l203 1450h836l-8 -51h-785l-94 -676h713l-6 -51h-713l-94 -672h-52z" />
<glyph unicode="g" horiz-adv-x="1294" d="M125 391l92 674q13 96 67.5 175t134 128t173 75.5t190.5 26.5q142 0 256 -54.5t162 -155.5l-51 -31q-39 95 -142.5 142.5t-236.5 47.5q-118 0 -223.5 -37.5t-184 -120t-94.5 -196.5l-92 -674q-4 -26 -4 -50q0 -59 21 -109q29 -70 88 -113.5t136 -66.5t165 -23 q87 0 171 23t156 66.5t121.5 114.5t61.5 158l36 260h-444l8 49h496l-45 -309q-14 -99 -69 -179t-135 -129.5t-173.5 -76t-190.5 -26.5t-183 26.5t-151 76t-97 129.5q-23 57 -23 123q0 27 4 56z" />
<glyph unicode="h" d="M102 0l203 1450h51l-98 -700h916l98 700h51l-203 -1450h-51l96 698h-915l-96 -698h-52z" />
<glyph unicode="i" horiz-adv-x="430" d="M102 0l203 1450h51l-202 -1450h-52z" />
<glyph unicode="j" horiz-adv-x="1173" d="M0 272l53 17q13 -66 50.5 -117.5t90 -82t111.5 -45.5t121 -15q82 0 161 22t147.5 64.5t115.5 111.5t59 156l144 1020h-484l6 47h535l-149 -1067q-14 -101 -66.5 -180t-129 -126.5t-165 -72t-182.5 -24.5q-159 0 -276.5 76.5t-141.5 215.5z" />
<glyph unicode="k" horiz-adv-x="1206" d="M102 0l203 1450h51l-123 -881l981 881h66l-768 -698l565 -752h-59l-547 715l-248 -217l-69 -498h-52z" />
<glyph unicode="l" horiz-adv-x="999" d="M102 0l203 1450h51l-196 -1399h725l-6 -51h-777z" />
<glyph unicode="m" horiz-adv-x="1630" d="M102 0l203 1450h109l352 -1174l682 1174h108l-202 -1450h-51l196 1413h-18l-690 -1184h-66l-358 1170l-19 -2l-194 -1397h-52z" />
<glyph unicode="n" horiz-adv-x="1372" d="M102 0l203 1450h80l666 -1401l196 1401h51l-202 -1450h-88l-656 1384l-196 -1384h-54z" />
<glyph unicode="o" d="M127 391l92 670q11 79 49.5 146.5t95.5 115t130.5 81.5t154.5 50t166 16q103 0 194.5 -26.5t161.5 -75.5t105 -129q26 -58 26 -126q0 -25 -4 -52l-92 -670q-13 -98 -70.5 -178t-141.5 -130t-183.5 -76.5t-202.5 -26.5t-194.5 26.5t-161.5 76.5t-104 130q-25 58 -25 126 q0 25 4 52zM178 391q-3 -24 -4 -47q0 -60 24 -111q32 -70 94.5 -113.5t145 -66t176.5 -22.5t183.5 23t166 66t128 113.5t63.5 157.5l92 670q4 26 4 51q1 61 -23 112q-32 71 -97.5 113t-148 63t-177.5 21q-95 -1 -182.5 -22.5t-163 -64t-126 -113t-63.5 -160.5z" />
<glyph unicode="p" horiz-adv-x="1230" d="M102 0l203 1450h512q107 -1 188 -40t125.5 -102t62.5 -140q11 -47 11 -97q0 -30 -4 -61q-12 -81 -51 -156.5t-101 -137.5t-153.5 -99.5t-198.5 -38.5h-463l-79 -578h-52zM242 629h460q90 0 170 33.5t136.5 88t93.5 122.5t47 139q4 29 4 57q0 66 -23 128 q-33 88 -116.5 147t-202.5 59h-461z" />
<glyph unicode="q" horiz-adv-x="1394" d="M127 391l92 670q13 99 69 178.5t138.5 129t182.5 75.5t206 26q103 0 194 -26.5t160.5 -75.5t104.5 -129q26 -58 26 -126q0 -25 -4 -52l-92 -670q-13 -91 -48.5 -149t-104.5 -121l90 -129l-43 -27l-88 125q-179 -110 -402 -110q-103 0 -194.5 26.5t-161 76.5t-104.5 130 q-25 58 -25 126q0 25 4 52zM178 391q-3 -23 -3 -46q0 -58 23 -109q31 -71 93.5 -115t145.5 -68t177 -24q201 0 371 102l-104 160l43 28l98 -157q112 80 131 229l92 670q3 24 3 46q0 60 -23 111q-32 71 -95.5 114t-146 66t-176.5 23q-95 -1 -182.5 -22.5t-163.5 -64 t-127 -113t-64 -160.5z" />
<glyph unicode="r" horiz-adv-x="1245" d="M102 0l203 1450h512q98 0 173.5 -20.5t131 -65t79.5 -122.5q16 -50 16 -113q0 -34 -5 -72q-59 -410 -505 -410h-78l399 -647h-59l-398 647h-329l-90 -647h-50zM248 692h465q201 0 312 87t138 276q6 40 6 75q0 130 -75 194q-92 80 -268 79h-13h-465z" />
<glyph unicode="s" horiz-adv-x="1181" d="M53 213l51 20q54 -98 163 -151t241 -53q77 0 150.5 19t138.5 55.5t114 97t70 137.5q8 38 8.5 72t-7 62t-19 52.5t-31 44.5t-40.5 37t-49 31t-54.5 25t-60.5 21.5t-63 18t-65 15.5q-74 16 -130 32.5t-119 49t-100.5 73t-56.5 104.5q-11 35 -11 75q0 32 7 67 q15 87 64 155.5t120.5 111t156 64t176.5 21.5q147 0 258 -55t161 -168l-51 -18q-41 94 -144.5 143t-232.5 49q-80 0 -152 -17.5t-135.5 -52.5t-108 -94.5t-60.5 -138.5q-7 -33 -8 -63q0 -40 14 -75q23 -61 80.5 -101.5t127 -67t162.5 -45.5q47 -10 87 -20.5t84 -26t78 -34 t68.5 -44t54.5 -55.5q21 -30 38 -68q17 -37 17 -79q0 -43 -9 -101q-24 -113 -104 -195.5t-192 -122.5t-242 -40q-143 0 -263.5 58t-181.5 175z" />
<glyph unicode="t" horiz-adv-x="1097" d="M145 1399l9 51h1017l-8 -51h-483l-195 -1399h-51l195 1399h-484z" />
<glyph unicode="u" horiz-adv-x="1376" d="M147 397l148 1053h51l-147 -1053q-4 -28 -4 -53q0 -58 20 -108q29 -72 88 -116t136 -67.5t165 -23.5q87 0 171 23.5t155.5 67.5t121 116t62.5 161l148 1053h51l-148 -1053q-14 -100 -69 -181t-134.5 -131.5t-173 -77.5t-190.5 -27t-183.5 27t-152 77.5t-97.5 131.5 q-22 56 -22 122q0 29 4 59z" />
<glyph unicode="v" horiz-adv-x="1224" d="M147 1450h58l321 -1403h13l708 1405h56l-732 -1452h-92z" />
<glyph unicode="w" horiz-adv-x="1894" d="M166 1450h55l213 -1395h10l553 1178h72l219 -1182h12l605 1399h55l-627 -1450h-90l-215 1184l-551 -1184h-92z" />
<glyph unicode="x" horiz-adv-x="1118" d="M-35 0l578 723l-373 727h57l353 -680l542 680h60l-580 -727l375 -723h-59l-349 688l-540 -688h-64z" />
<glyph unicode="y" horiz-adv-x="1116" d="M150 1450h61l346 -817l590 817h63l-637 -875l-79 -575h-52l80 575z" />
<glyph unicode="z" horiz-adv-x="1118" d="M-29 25l1127 1380h-891l6 45h942l14 -27l-1124 -1378h903l-6 -45h-952z" />
<glyph unicode="{" horiz-adv-x="530" d="M88 621l6 36q148 37 193 347l43 296q6 46 12.5 76t20.5 62.5t33.5 51t52.5 30.5t77 12h47l-6 -43h-45q-25 0 -44.5 -4.5t-33.5 -11t-24 -21t-16.5 -26.5t-11.5 -36t-8 -41.5t-7 -50.5l-43 -299q-21 -155 -74.5 -247.5t-107.5 -112.5q16 -7 29 -19.5t28.5 -38.5 t22.5 -64.5t9.5 -97t-10.5 -136.5l-43 -301q-12 -93 8.5 -134t100.5 -41h33l-6 -43h-35q-101 0 -132 54.5t-16 161.5l41 296q13 93 12 164.5t-27 119t-79 61.5z" />
<glyph unicode="|" horiz-adv-x="366" d="M27 -330l260 1860h45l-260 -1860h-45z" />
<glyph unicode="}" horiz-adv-x="532" d="M-37 -236l6 43h31q79 0 113.5 45t46.5 130l43 297q38 274 182 366q-49 20 -77 112.5t-5 246.5l43 294q8 60 9.5 102.5t-22.5 65.5t-81 23h-45l4 41h47q67 0 100.5 -28.5t37 -80t-4.5 -121.5l-43 -296q-10 -83 -9 -154.5t28 -125t79 -67.5l-6 -36q-148 -37 -192 -345 l-41 -294q-30 -218 -209 -218h-35z" />
<glyph unicode="~" horiz-adv-x="1081" d="M152 580q97 133 233 133q44 0 88.5 -22.5t76 -49.5t74.5 -49.5t85 -22.5q60 0 107.5 32.5t96.5 92.5l17 -24q-41 -63 -102 -104.5t-128 -41.5q-42 0 -88.5 22.5t-80.5 49.5t-76.5 49.5t-77.5 22.5q-110 0 -207 -115q-3 4 -9.5 14.5t-8.5 12.5z" />
<glyph unicode="&#xa1;" horiz-adv-x="385" d="M16 -420l164 1172h56l-164 -1172h-56zM180 1004q4 26 26 44.5t48 18.5t41.5 -18.5t11.5 -44.5q-3 -26 -24 -45t-47 -19t-42.5 19t-13.5 45z" />
<glyph unicode="&#xa2;" horiz-adv-x="944" d="M92 291l66 481q13 90 72.5 160.5t141.5 107.5t173 41l26 174h43l-26 -174q99 -6 165 -39t107 -98l-35 -24q-34 53 -100 87t-143 31l-140 -1013q87 3 175 46t124 105l37 -18q-50 -77 -140.5 -123t-201.5 -55l-26 -173h-43l26 173q-144 16 -232 97t-69 214zM137 291 q-14 -112 60.5 -178.5t201.5 -85.5l140 1009q-124 -5 -222 -74.5t-114 -187.5z" />
<glyph unicode="&#xa3;" horiz-adv-x="1009" d="M23 0l4 43h213l98 698h-213l6 41h213l41 303q7 54 25 105.5t52.5 103t81.5 90t117 62.5t154 24q69 0 120 -17.5t97 -59.5l-35 -35q-75 69 -192 69q-83 0 -151.5 -30t-112.5 -79.5t-71 -107t-36 -118.5l-43 -310h338l-6 -41h-338l-98 -698h501l-4 -43h-761z" />
<glyph unicode="&#xa4;" horiz-adv-x="1261" d="M125 289l127 110q-108 140 -82 326q26 185 168 322l-90 106l31 33l90 -113q177 125 344 125q164 0 301 -121l121 109l26 -25l-127 -114q111 -141 86 -322t-172 -319l103 -113q-15 -9 -35 -29l-98 111q-180 -129 -340 -129q-162 0 -306 125l-122 -109zM211 723 q-16 -119 28.5 -218.5t135 -156.5t205.5 -57q178 0 324 126t171 306q17 120 -28 221t-136.5 158t-208.5 57q-176 0 -320.5 -126.5t-170.5 -309.5z" />
<glyph unicode="&#xa5;" horiz-adv-x="1150" d="M166 354l12 45h332l20 152h-333l16 47h299l-340 852h59l332 -840l582 840h59l-590 -852h314l-19 -47h-331l-21 -152h342l-14 -45h-334l-49 -354h-47l49 354h-338z" />
<glyph unicode="&#xa6;" horiz-adv-x="391" d="M47 -260l98 709h50l-99 -709h-49zM190 764l97 682h49l-96 -682h-50z" />
<glyph unicode="&#xa7;" horiz-adv-x="956" d="M14 -66l49 21q36 -87 114 -128.5t163 -43.5q56 -1 105.5 10t97 37t79.5 76t42 121q6 46 -8 86.5t-37.5 68.5t-66.5 58t-75.5 47t-85 43t-76.5 39q-96 54 -145 116.5t-37 155.5q13 85 90.5 153.5t194.5 116.5q-90 59 -131 118.5t-31 135.5q13 89 72.5 157.5t141 102 t169.5 33.5q40 0 79 -8t77 -24.5t67.5 -46t42.5 -68.5l-43 -23q-53 123 -231 123q-71 0 -140.5 -28.5t-122 -86t-63.5 -131.5q-5 -40 6 -74.5t32.5 -59.5t55 -49t68 -42.5t77.5 -39.5q3 -1 5 -2l5 -2.5l5 -2.5q51 -25 84.5 -44t76.5 -51t66.5 -63t37.5 -75.5t7 -94.5 q-10 -80 -79 -153.5t-168 -124.5q77 -49 113.5 -116.5t27.5 -129.5q-12 -83 -50 -144.5t-93.5 -95.5t-117.5 -49.5t-132 -15.5q-109 0 -198.5 52.5t-119.5 145.5zM184 641q-5 -35 4 -66.5t21.5 -52t38.5 -43t39.5 -31.5t40.5 -26l215 -113q83 41 154.5 108.5t82.5 141.5 q11 79 -36 142t-113 102l-158 82q-46 -15 -88.5 -35t-88 -50t-76 -71.5t-36.5 -87.5z" />
<glyph unicode="&#xa8;" horiz-adv-x="614" d="M86 1657q3 20 20 34.5t37 14.5t32 -14.5t9 -34.5t-19 -34.5t-36 -14.5t-33 14.5t-10 34.5zM455 1657q3 20 20 34.5t37 14.5t32 -14.5t9 -34.5t-19 -34.5t-36 -14.5t-33 14.5t-10 34.5z" />
<glyph unicode="&#xa9;" horiz-adv-x="1693" d="M133 725q28 196 149.5 363.5t303 265.5t377.5 98t350 -98t228 -265.5t46 -363.5q-27 -196 -148.5 -363.5t-303 -265.5t-377.5 -98q-147 0 -273.5 58t-210 155.5t-122.5 232t-19 281.5zM180 725q-26 -186 42.5 -342.5t212.5 -247t331 -90.5t355.5 90.5t280.5 246.5 t138 343q20 140 -16 266t-113.5 216.5t-196 144t-258.5 53.5q-187 0 -356 -90.5t-281.5 -247t-138.5 -342.5zM473 571l43 310q21 146 141.5 227.5t268.5 81.5q98 0 176.5 -34.5t118.5 -102.5l-39 -23q-66 115 -262 115q-85 0 -159.5 -27t-131 -87.5t-68.5 -145.5l-43 -314 q-13 -87 26 -148.5t106.5 -88.5t152.5 -27q96 0 182.5 39.5t134.5 112.5q9 -4 20.5 -10.5t20.5 -10.5q-57 -84 -157 -130t-209 -46q-70 0 -131.5 19.5t-108.5 57t-69.5 97.5t-12.5 135z" />
<glyph unicode="&#xaa;" horiz-adv-x="751" d="M168 1008q32 200 281 200q100 0 184 -37l14 105q11 75 -40.5 113t-135.5 38q-94 0 -182 -63l-27 27q105 79 219 79q62 0 111.5 -20t78 -64.5t19.5 -107.5l-63 -457q-142 -42 -271 -39q-92 2 -146.5 65t-41.5 161zM211 1008q-12 -83 32.5 -133t123.5 -52q100 0 221 23 l39 287q-99 36 -189 36q-202 0 -227 -161z" />
<glyph unicode="&#xab;" horiz-adv-x="772" d="M92 604l301 371q18 -12 29 -23q4 -4 6 -4l-283 -344q49 -91 105 -199.5t76 -144.5l-35 -22zM346 604l301 371q18 -12 29 -23q4 -4 6 -4l-287 -344l187 -344l-37 -22z" />
<glyph unicode="&#xac;" horiz-adv-x="1234" d="M172 739l6 43h907l-55 -399h-43l49 356h-864z" />
<glyph unicode="&#xad;" horiz-adv-x="714" d="M143 528l7 47h466l-6 -47h-467z" />
<glyph unicode="&#xae;" horiz-adv-x="1693" d="M133 725q28 196 149.5 363.5t303 265.5t377.5 98t350 -98t228 -265.5t46 -363.5q-27 -196 -148.5 -363.5t-303 -265.5t-377.5 -98q-147 0 -273.5 58t-210 155.5t-122.5 232t-19 281.5zM182 725q-20 -139 16 -264.5t114 -216t196.5 -144t257.5 -53.5q185 0 353.5 90 t280.5 246t138 342q20 139 -16 264.5t-113.5 216t-195.5 144t-257 53.5q-186 0 -354.5 -90t-281 -246.5t-138.5 -341.5zM559 324l115 815h278q126 0 188 -65t48 -163q-15 -102 -93 -164.5t-186 -70.5l203 -352h-45l-207 348h-211l-49 -348h-41zM653 709h176q46 0 83.5 4 t79 16.5t71.5 34t52.5 59t29.5 88.5q9 65 -20.5 109t-77.5 62t-107 18h-231z" />
<glyph unicode="&#xaf;" horiz-adv-x="563" d="M113 1610l6 43h403l-6 -43h-403z" />
<glyph unicode="&#xb0;" horiz-adv-x="659" d="M207 1253q10 86 80 146.5t157 60.5q86 0 139 -60.5t42 -146.5q-12 -87 -82.5 -149t-157.5 -62q-86 0 -138 61.5t-40 149.5zM248 1251q-9 -72 32.5 -121t110.5 -49t124.5 49t64.5 121q10 72 -31.5 121t-110.5 49t-124.5 -49t-65.5 -121z" />
<glyph unicode="&#xb1;" horiz-adv-x="1167" d="M119 229l6 41h821l-6 -41h-821zM199 815l6 43h385l53 367h43l-53 -367h399l-6 -43h-399l-52 -373h-43l52 373h-385z" />
<glyph unicode="&#xb2;" horiz-adv-x="821" d="M133 659l459 410q67 58 98.5 111t20.5 114q-22 68 -77 103t-126 35q-61 0 -122.5 -27t-102.5 -76l-31 17q99 124 262 124q86 0 150.5 -39.5t85.5 -115.5l-2 2q20 -77 -20.5 -149.5t-109.5 -123.5l-423 -378h479l-4 -39h-529z" />
<glyph unicode="&#xb3;" horiz-adv-x="790" d="M143 786l41 15q23 -52 77 -81t116 -32q93 -7 182.5 47.5t102.5 147.5q13 99 -40.5 146t-148.5 42h-67l4 35h67q97 0 148 43q49 40 57.5 106t-25.5 109q-55 70 -159 70q-59 0 -119 -24.5t-100 -68.5l-25 21q58 64 142.5 92t165 11.5t128.5 -74.5q42 -55 39.5 -114 t-40 -110t-95.5 -75q46 -16 73 -51t33.5 -74t1.5 -84q-11 -76 -64.5 -132.5t-124 -81t-144.5 -20.5q-77 5 -140 40t-86 97z" />
<glyph unicode="&#xb4;" horiz-adv-x="450" d="M211 1554l158 211h71l-178 -211h-51z" />
<glyph unicode="&#xb5;" horiz-adv-x="1052" d="M10 -432l209 1493h47l-94 -672q-4 -47 -5.5 -95t13 -94t38.5 -81.5t71.5 -57.5t111.5 -22q158 0 274 113.5t146 320.5l82 588h49l-141 -1061h-45l39 281q-32 -76 -80 -132.5t-103.5 -87.5t-111.5 -46t-113 -15q-45 0 -83.5 9t-76 30t-63 61t-33.5 97l-86 -629h-45z" />
<glyph unicode="&#xb6;" horiz-adv-x="1136" d="M125 1018q12 81 52.5 157t105 138.5t160.5 100.5t208 38h434l-235 -1683h-43l231 1646h-336l-231 -1646h-45l117 837q-112 0 -199 35t-137 93.5t-71.5 131.5t-10.5 152z" />
<glyph unicode="&#xb7;" horiz-adv-x="438" d="M154 637q3 26 26 45.5t49 19.5t42.5 -19.5t13.5 -45.5t-25.5 -46t-48.5 -20t-43 20t-14 46z" />
<glyph unicode="&#xb8;" horiz-adv-x="499" d="M100 -379l13 37q68 -37 120 -39q72 -3 115.5 26.5t57.5 73.5q19 55 -23.5 88t-128.5 23l113 190h41l-93 -159q83 0 118.5 -44.5t15.5 -111.5q-15 -55 -74 -93t-144 -34q-52 2 -131 43z" />
<glyph unicode="&#xb9;" horiz-adv-x="477" d="M168 1249l205 201h55l-117 -836h-43l111 793l-184 -184z" />
<glyph unicode="&#xba;" horiz-adv-x="827" d="M184 987l37 262q10 70 58.5 121.5t114 75.5t136.5 24q112 0 187 -58.5t61 -162.5l-37 -262q-10 -70 -58.5 -121.5t-114 -75.5t-136.5 -24q-112 0 -187 58.5t-61 162.5zM227 993q-7 -50 8.5 -87.5t47.5 -59t71 -31.5t84 -10q97 0 173.5 46t90.5 142l35 250 q12 96 -51 142.5t-160 46.5q-61 0 -115 -17.5t-97.5 -61.5t-51.5 -110z" />
<glyph unicode="&#xbb;" horiz-adv-x="765" d="M82 260l287 344q-174 316 -187 344l37 23l199 -367l-301 -371q-18 12 -29 23q-4 4 -6 4zM332 260l286 344q-166 302 -186 344l37 23l199 -367l-301 -371z" />
<glyph unicode="&#xbc;" horiz-adv-x="1320" d="M43 -4l1106 1474l31 -20l-1108 -1473zM172 1249l205 201h55l-117 -836h-43l111 793l-184 -184zM580 254l553 592h51l-84 -594h82l-6 -35h-82l-29 -217h-39l29 217h-457zM623 250l438 2l76 547z" />
<glyph unicode="&#xbd;" horiz-adv-x="1406" d="M61 -4l1106 1474l31 -20l-1108 -1473zM164 1249l205 201h55l-117 -836h-43l111 793l-185 -184zM688 33l459 409q65 58 96.5 111.5t20.5 114.5q-21 68 -75.5 102.5t-125.5 34.5q-61 0 -121 -27t-100 -76l-35 17q99 125 260 125q86 0 151.5 -40t86.5 -116l-2 2 q31 -126 -129 -272l-424 -379h479l-4 -39h-529z" />
<glyph unicode="&#xbe;" horiz-adv-x="1445" d="M113 766l41 14q23 -52 76.5 -80.5t117.5 -31.5q92 -7 181 47t102 147q14 99 -40 146.5t-149 42.5h-67l4 34h67q97 0 148 43q50 40 58.5 106t-25.5 109q-55 70 -160 70q-60 0 -119.5 -24t-97.5 -68q-14 7 -27 20q58 64 142.5 92t165 11.5t128.5 -74.5q27 -31 33 -80 t-12 -99.5t-57 -84.5q-16 -14 -60 -35q68 -23 93.5 -81.5t15.5 -127.5q-11 -76 -64.5 -132t-124 -80.5t-145.5 -20.5q-76 5 -139 40t-86 97zM238 -2l1103 1472l13 -8l16 -12l-1106 -1470zM694 254l553 592h51l-84 -594h82l-6 -35h-82l-28 -217h-39l28 217h-456zM737 250 l439 2l75 547z" />
<glyph unicode="&#xbf;" horiz-adv-x="903" d="M-8 4q27 185 159 291.5t320 124.5q7 42 66 393h36l-47 -430q-117 -7 -221 -53t-177.5 -132t-86.5 -196q-14 -108 31.5 -185t125 -112t179.5 -35q76 0 164.5 34t156.5 87l27 -31q-75 -64 -171.5 -102.5t-188.5 -38.5q-82 0 -154.5 25t-127 71.5t-80 121.5t-11.5 167z M522 993q3 26 23 44t45 18q26 0 42 -18t13 -44q-4 -26 -26 -44.5t-48 -18.5q-25 0 -39 18.5t-10 44.5z" />
<glyph unicode="&#xc0;" horiz-adv-x="1228" d="M-51 0l735 1450h92l328 -1450h-55l-119 518h-670l-256 -518h-55zM287 569h635l-189 842h-12zM625 1765h71l97 -211h-52z" />
<glyph unicode="&#xc1;" horiz-adv-x="1228" d="M-51 0l735 1450h92l328 -1450h-55l-119 518h-670l-256 -518h-55zM287 569h635l-189 842h-12zM664 1554l157 211h72l-178 -211h-51z" />
<glyph unicode="&#xc2;" horiz-adv-x="1228" d="M-51 0l735 1450h92l328 -1450h-55l-119 518h-670l-256 -518h-55zM287 569h635l-189 842h-12zM535 1546l204 193h58l147 -193h-57l-119 162l-172 -162h-61z" />
<glyph unicode="&#xc3;" horiz-adv-x="1228" d="M-51 0l735 1450h92l328 -1450h-55l-119 518h-670l-256 -518h-55zM287 569h635l-189 842h-12zM535 1626q20 43 57 71.5t80 28.5q35 0 68.5 -24.5t63.5 -49t56 -24.5q30 0 50.5 16.5t39.5 49.5l31 -13q-46 -98 -127 -98q-34 0 -66 25t-63 50t-61 25q-61 0 -101 -69z" />
<glyph unicode="&#xc4;" horiz-adv-x="1228" d="M-51 0l735 1450h92l328 -1450h-55l-119 518h-670l-256 -518h-55zM287 569h635l-189 842h-12zM522 1657q3 20 20.5 34.5t37.5 14.5t32 -14.5t9 -34.5t-19.5 -34.5t-36.5 -14.5t-33 14.5t-10 34.5zM891 1657q3 20 20 34.5t37 14.5t32 -14.5t9 -34.5t-19 -34.5t-36 -14.5 t-33 14.5t-10 34.5z" />
<glyph unicode="&#xc5;" horiz-adv-x="1228" d="M-51 0l725 1430q-41 15 -63 52t-20 80t20.5 83.5t61.5 67t99 26.5q66 0 102 -42.5t35.5 -96.5t-34.5 -106t-93 -69l322 -1425h-55l-119 518h-670l-256 -518h-55zM287 569h635l-189 842h-12zM645 1518q22 -58 88 -58q74 0 112 65q34 57 14 112q-22 60 -93 61 q-77 0 -112 -67q-31 -57 -9 -113z" />
<glyph unicode="&#xc6;" horiz-adv-x="1581" d="M-72 0l922 1450h743l-6 -49h-622l-95 -672h560l-9 -49h-559l-88 -635h623l-6 -45h-670l72 518h-474q-90 -140 -167.5 -260.5t-111 -172t-54.5 -85.5h-58zM348 565h451l119 842l-41 -2z" />
<glyph unicode="&#xc7;" horiz-adv-x="1196" d="M127 385l92 680q18 129 100.5 222.5t201 138t259.5 44.5q144 0 263.5 -54t168.5 -154l-49 -31q-41 90 -149 140t-238 50q-117 0 -223.5 -38t-186.5 -121t-96 -197l-92 -680q-12 -86 17.5 -155t89 -111.5t136.5 -65t163 -22.5q118 0 244.5 48t193.5 134l41 -23 q-71 -95 -194 -149.5t-261 -60.5l-67 -119q83 0 118 -44.5t15 -111.5q-15 -55 -74 -93t-143 -34q-52 2 -131 43l12 37q68 -37 121 -39q72 -3 115 26.5t57 73.5q19 55 -23.5 88t-128.5 23l88 150q-75 1 -144.5 18t-128 50.5t-100 80.5t-60 113t-7.5 143z" />
<glyph unicode="&#xc8;" horiz-adv-x="1155" d="M102 0l203 1450h862l-8 -51h-811l-90 -649h750l-9 -56h-749l-90 -643h811l-6 -51h-863zM649 1765h72l96 -211h-51z" />
<glyph unicode="&#xc9;" horiz-adv-x="1155" d="M102 0l203 1450h862l-8 -51h-811l-90 -649h750l-9 -56h-749l-90 -643h811l-6 -51h-863zM688 1554l158 211h72l-179 -211h-51z" />
<glyph unicode="&#xca;" horiz-adv-x="1155" d="M102 0l203 1450h862l-8 -51h-811l-90 -649h750l-9 -56h-749l-90 -643h811l-6 -51h-863zM559 1546l205 193h57l148 -193h-58l-118 162l-172 -162h-62z" />
<glyph unicode="&#xcb;" horiz-adv-x="1155" d="M102 0l203 1450h862l-8 -51h-811l-90 -649h750l-9 -56h-749l-90 -643h811l-6 -51h-863zM547 1657q3 20 20 34.5t37 14.5t32 -14.5t9 -34.5t-19 -34.5t-36 -14.5t-33 14.5t-10 34.5zM915 1657q3 20 20.5 34.5t37.5 14.5t32 -14.5t9 -34.5t-19.5 -34.5t-36.5 -14.5 t-33 14.5t-10 34.5z" />
<glyph unicode="&#xcc;" horiz-adv-x="430" d="M102 0l203 1450h51l-202 -1450h-52zM246 1765h71l97 -211h-52z" />
<glyph unicode="&#xcd;" horiz-adv-x="430" d="M102 0l203 1450h51l-202 -1450h-52zM285 1554l157 211h72l-178 -211h-51z" />
<glyph unicode="&#xce;" horiz-adv-x="430" d="M102 0l203 1450h51l-202 -1450h-52zM156 1546l204 193h58l147 -193h-57l-119 162l-172 -162h-61z" />
<glyph unicode="&#xcf;" horiz-adv-x="430" d="M102 0l203 1450h51l-202 -1450h-52zM143 1657q3 20 20.5 34.5t37.5 14.5t32 -14.5t9 -34.5t-19.5 -34.5t-36.5 -14.5t-33 14.5t-10 34.5zM512 1657q3 20 20 34.5t37 14.5t32 -14.5t9 -34.5t-19 -34.5t-36 -14.5t-33 14.5t-10 34.5z" />
<glyph unicode="&#xd0;" horiz-adv-x="1302" d="M74 696l6 45h129l100 709h449q97 0 183 -26t151.5 -75.5t97.5 -129.5t18 -179l-90 -632q-13 -98 -67.5 -177.5t-133.5 -129t-172 -75.5t-190 -26h-449l97 696h-129zM164 51h397q118 0 224.5 38t186 121t95.5 198l90 632q12 87 -17.5 157.5t-89 113.5t-136.5 65.5 t-164 22.5h-398l-92 -658h256l-6 -45h-256z" />
<glyph unicode="&#xd1;" horiz-adv-x="1372" d="M102 0l203 1450h80l666 -1401l196 1401h51l-202 -1450h-88l-656 1384l-196 -1384h-54zM625 1626q20 43 57 71.5t80 28.5q35 0 68.5 -24.5t63.5 -49t56 -24.5q30 0 50.5 16.5t39.5 49.5l31 -13q-46 -98 -127 -98q-34 0 -66 25t-63 50t-61 25q-61 0 -101 -69z" />
<glyph unicode="&#xd2;" d="M127 391l92 670q11 79 49.5 146.5t95.5 115t130.5 81.5t154.5 50t166 16q103 0 194.5 -26.5t161.5 -75.5t105 -129t22 -178l-92 -670q-13 -98 -70.5 -178t-141.5 -130t-183.5 -76.5t-202.5 -26.5t-194.5 26.5t-161 76.5t-104 130t-21.5 178zM178 391q-12 -88 19.5 -158 t94.5 -113.5t145.5 -66t176.5 -22.5t183.5 23t166 66t128 113.5t63.5 157.5l92 670q13 92 -19.5 163t-97.5 113t-147.5 63t-177.5 21q-95 -1 -182.5 -22.5t-163 -64t-126 -113t-63.5 -160.5zM713 1765h71l97 -211h-52z" />
<glyph unicode="&#xd3;" d="M127 391l92 670q11 79 49.5 146.5t95.5 115t130.5 81.5t154.5 50t166 16q103 0 194.5 -26.5t161.5 -75.5t105 -129t22 -178l-92 -670q-13 -98 -70.5 -178t-141.5 -130t-183.5 -76.5t-202.5 -26.5t-194.5 26.5t-161 76.5t-104 130t-21.5 178zM178 391q-12 -88 19.5 -158 t94.5 -113.5t145.5 -66t176.5 -22.5t183.5 23t166 66t128 113.5t63.5 157.5l92 670q13 92 -19.5 163t-97.5 113t-147.5 63t-177.5 21q-95 -1 -182.5 -22.5t-163 -64t-126 -113t-63.5 -160.5zM752 1554l157 211h72l-178 -211h-51z" />
<glyph unicode="&#xd4;" d="M127 391l92 670q11 79 49.5 146.5t95.5 115t130.5 81.5t154.5 50t166 16q103 0 194.5 -26.5t161.5 -75.5t105 -129t22 -178l-92 -670q-13 -98 -70.5 -178t-141.5 -130t-183.5 -76.5t-202.5 -26.5t-194.5 26.5t-161 76.5t-104 130t-21.5 178zM178 391q-12 -88 19.5 -158 t94.5 -113.5t145.5 -66t176.5 -22.5t183.5 23t166 66t128 113.5t63.5 157.5l92 670q13 92 -19.5 163t-97.5 113t-147.5 63t-177.5 21q-95 -1 -182.5 -22.5t-163 -64t-126 -113t-63.5 -160.5zM623 1546l204 193h58l147 -193h-57l-119 162l-172 -162h-61z" />
<glyph unicode="&#xd5;" d="M127 391l92 670q11 79 49.5 146.5t95.5 115t130.5 81.5t154.5 50t166 16q103 0 194.5 -26.5t161.5 -75.5t105 -129t22 -178l-92 -670q-13 -98 -70.5 -178t-141.5 -130t-183.5 -76.5t-202.5 -26.5t-194.5 26.5t-161 76.5t-104 130t-21.5 178zM178 391q-12 -88 19.5 -158 t94.5 -113.5t145.5 -66t176.5 -22.5t183.5 23t166 66t128 113.5t63.5 157.5l92 670q13 92 -19.5 163t-97.5 113t-147.5 63t-177.5 21q-95 -1 -182.5 -22.5t-163 -64t-126 -113t-63.5 -160.5zM623 1626q20 43 57 71.5t80 28.5q35 0 68.5 -24.5t63.5 -49t56 -24.5 q30 0 50.5 16.5t39.5 49.5l31 -13q-46 -98 -127 -98q-34 0 -66 25t-63 50t-61 25q-61 0 -101 -69z" />
<glyph unicode="&#xd6;" d="M127 391l92 670q11 79 49.5 146.5t95.5 115t130.5 81.5t154.5 50t166 16q103 0 194.5 -26.5t161.5 -75.5t105 -129t22 -178l-92 -670q-13 -98 -70.5 -178t-141.5 -130t-183.5 -76.5t-202.5 -26.5t-194.5 26.5t-161 76.5t-104 130t-21.5 178zM178 391q-12 -88 19.5 -158 t94.5 -113.5t145.5 -66t176.5 -22.5t183.5 23t166 66t128 113.5t63.5 157.5l92 670q13 92 -19.5 163t-97.5 113t-147.5 63t-177.5 21q-95 -1 -182.5 -22.5t-163 -64t-126 -113t-63.5 -160.5zM610 1657q3 20 20.5 34.5t37.5 14.5t32 -14.5t9 -34.5t-19.5 -34.5t-36.5 -14.5 t-33 14.5t-10 34.5zM979 1657q3 20 20 34.5t37 14.5t32 -14.5t9 -34.5t-19 -34.5t-36 -14.5t-33 14.5t-10 34.5z" />
<glyph unicode="&#xd7;" horiz-adv-x="1001" d="M100 362l375 328l-287 336l39 33l287 -334l373 326l28 -33l-372 -326l276 -321l-37 -35l-276 321l-377 -329z" />
<glyph unicode="&#xd8;" d="M129 408l90 636q14 98 71 178t140.5 129.5t182.5 76t202 26.5q139 0 246 -43l80 145l37 -14l-80 -145q106 -59 161 -149t39 -204l-90 -636q-13 -98 -70.5 -178.5t-141.5 -130.5t-183.5 -76.5t-202.5 -26.5q-99 0 -239 43l-82 -152l-39 11l82 155q-109 59 -164 148 t-39 207zM178 408q-25 -186 180 -312l680 1274q-43 17 -88.5 25.5t-68 9t-74.5 0.5q-95 -1 -183 -23t-164 -64t-127.5 -113t-64.5 -161zM395 84q136 -39 223 -39q93 0 182.5 23t166 67t129 115t65.5 158l90 636q27 184 -178 310z" />
<glyph unicode="&#xd9;" horiz-adv-x="1376" d="M147 397l148 1053h51l-147 -1053q-13 -89 16 -161t88 -116t136 -67.5t165 -23.5q87 0 171 23.5t155.5 67.5t121 116t62.5 161l148 1053h51l-148 -1053q-14 -100 -69 -181t-134.5 -131.5t-173 -77.5t-190.5 -27t-183.5 27t-152 77.5t-97.5 131.5t-18 181zM694 1765h72 l96 -211h-51z" />
<glyph unicode="&#xda;" horiz-adv-x="1376" d="M147 397l148 1053h51l-147 -1053q-13 -89 16 -161t88 -116t136 -67.5t165 -23.5q87 0 171 23.5t155.5 67.5t121 116t62.5 161l148 1053h51l-148 -1053q-14 -100 -69 -181t-134.5 -131.5t-173 -77.5t-190.5 -27t-183.5 27t-152 77.5t-97.5 131.5t-18 181zM733 1554 l158 211h72l-179 -211h-51z" />
<glyph unicode="&#xdb;" horiz-adv-x="1376" d="M147 397l148 1053h51l-147 -1053q-13 -89 16 -161t88 -116t136 -67.5t165 -23.5q87 0 171 23.5t155.5 67.5t121 116t62.5 161l148 1053h51l-148 -1053q-14 -100 -69 -181t-134.5 -131.5t-173 -77.5t-190.5 -27t-183.5 27t-152 77.5t-97.5 131.5t-18 181zM604 1546 l205 193h57l148 -193h-58l-118 162l-172 -162h-62z" />
<glyph unicode="&#xdc;" horiz-adv-x="1376" d="M147 397l148 1053h51l-147 -1053q-13 -89 16 -161t88 -116t136 -67.5t165 -23.5q87 0 171 23.5t155.5 67.5t121 116t62.5 161l148 1053h51l-148 -1053q-14 -100 -69 -181t-134.5 -131.5t-173 -77.5t-190.5 -27t-183.5 27t-152 77.5t-97.5 131.5t-18 181zM592 1657 q3 20 20 34.5t37 14.5t32 -14.5t9 -34.5t-19 -34.5t-36 -14.5t-33 14.5t-10 34.5zM961 1657q3 20 20 34.5t37 14.5t32 -14.5t9 -34.5t-19 -34.5t-36 -14.5t-33 14.5t-10 34.5z" />
<glyph unicode="&#xdd;" horiz-adv-x="1116" d="M150 1450h61l346 -817l590 817h63l-637 -875l-79 -575h-52l80 575zM635 1554l158 211h71l-178 -211h-51z" />
<glyph unicode="&#xde;" horiz-adv-x="1232" d="M100 0l205 1450h51l-34 -246h460q86 0 156 -25.5t115 -68t75.5 -99.5t37 -119.5t-0.5 -127.5q-12 -81 -51 -156.5t-101 -137.5t-153 -99.5t-198 -38.5h-463l-47 -332h-52zM207 383h461q90 0 170 33.5t136.5 88t93 122.5t46.5 139q6 58 0.5 113.5t-32.5 105.5t-66 88 t-101.5 60.5t-138.5 23.5h-461z" />
<glyph unicode="&#xdf;" horiz-adv-x="1189" d="M78 0l155 1112q24 167 156 262.5t318 95.5q115 0 204 -37.5t137.5 -118t32.5 -190.5q-32 -240 -256 -319q272 -87 226 -381q-33 -214 -188 -330.5t-376 -113.5q-96 0 -204 49l10 53q115 -48 199 -51q115 -2 222.5 42t186.5 136.5t96 216.5q12 90 -9 158.5t-69.5 110 t-117 62t-154.5 19.5h-237l6 45h237q144 0 250 77.5t127 225.5q11 78 -13 137.5t-73.5 93.5t-111 51t-132.5 17q-70 0 -137.5 -18.5t-126.5 -55t-100.5 -98t-52.5 -139.5l-156 -1112h-49z" />
<glyph unicode="&#xe0;" horiz-adv-x="1228" d="M-51 0l735 1450h92l328 -1450h-55l-119 518h-670l-256 -518h-55zM287 569h635l-189 842h-12zM625 1765h71l97 -211h-52z" />
<glyph unicode="&#xe1;" horiz-adv-x="1228" d="M-51 0l735 1450h92l328 -1450h-55l-119 518h-670l-256 -518h-55zM287 569h635l-189 842h-12zM664 1554l157 211h72l-178 -211h-51z" />
<glyph unicode="&#xe2;" horiz-adv-x="1228" d="M-51 0l735 1450h92l328 -1450h-55l-119 518h-670l-256 -518h-55zM287 569h635l-189 842h-12zM535 1546l204 193h58l147 -193h-57l-119 162l-172 -162h-61z" />
<glyph unicode="&#xe3;" horiz-adv-x="1228" d="M-51 0l735 1450h92l328 -1450h-55l-119 518h-670l-256 -518h-55zM287 569h635l-189 842h-12zM535 1626q20 43 57 71.5t80 28.5q35 0 68.5 -24.5t63.5 -49t56 -24.5q30 0 50.5 16.5t39.5 49.5l31 -13q-46 -98 -127 -98q-34 0 -66 25t-63 50t-61 25q-61 0 -101 -69z" />
<glyph unicode="&#xe4;" horiz-adv-x="1228" d="M-51 0l735 1450h92l328 -1450h-55l-119 518h-670l-256 -518h-55zM287 569h635l-189 842h-12zM522 1657q3 20 20.5 34.5t37.5 14.5t32 -14.5t9 -34.5t-19.5 -34.5t-36.5 -14.5t-33 14.5t-10 34.5zM891 1657q3 20 20 34.5t37 14.5t32 -14.5t9 -34.5t-19 -34.5t-36 -14.5 t-33 14.5t-10 34.5z" />
<glyph unicode="&#xe5;" horiz-adv-x="1228" d="M-51 0l725 1430q-41 15 -63 52t-20 80t20.5 83.5t61.5 67t99 26.5q66 0 102 -42.5t35.5 -96.5t-34.5 -106t-93 -69l322 -1425h-55l-119 518h-670l-256 -518h-55zM287 569h635l-189 842h-12zM645 1518q22 -58 88 -58q74 0 112 65q34 57 14 112q-22 60 -93 61 q-77 0 -112 -67q-31 -57 -9 -113z" />
<glyph unicode="&#xe6;" horiz-adv-x="1581" d="M-72 0l922 1450h743l-6 -49h-622l-95 -672h560l-9 -49h-559l-88 -635h623l-6 -45h-670l72 518h-474q-90 -140 -167.5 -260.5t-111 -172t-54.5 -85.5h-58zM348 565h451l119 842l-41 -2z" />
<glyph unicode="&#xe7;" horiz-adv-x="1196" d="M127 385l92 680q18 129 100.5 222.5t201 138t259.5 44.5q144 0 263.5 -54t168.5 -154l-49 -31q-41 90 -149 140t-238 50q-117 0 -223.5 -38t-186.5 -121t-96 -197l-92 -680q-12 -86 17.5 -155t89 -111.5t136.5 -65t163 -22.5q118 0 244.5 48t193.5 134l41 -23 q-71 -95 -194 -149.5t-261 -60.5l-67 -119q83 0 118 -44.5t15 -111.5q-15 -55 -74 -93t-143 -34q-52 2 -131 43l12 37q68 -37 121 -39q72 -3 115 26.5t57 73.5q19 55 -23.5 88t-128.5 23l88 150q-75 1 -144.5 18t-128 50.5t-100 80.5t-60 113t-7.5 143z" />
<glyph unicode="&#xe8;" horiz-adv-x="1155" d="M102 0l203 1450h862l-8 -51h-811l-90 -649h750l-9 -56h-749l-90 -643h811l-6 -51h-863zM649 1765h72l96 -211h-51z" />
<glyph unicode="&#xe9;" horiz-adv-x="1155" d="M102 0l203 1450h862l-8 -51h-811l-90 -649h750l-9 -56h-749l-90 -643h811l-6 -51h-863zM688 1554l158 211h72l-179 -211h-51z" />
<glyph unicode="&#xea;" horiz-adv-x="1155" d="M102 0l203 1450h862l-8 -51h-811l-90 -649h750l-9 -56h-749l-90 -643h811l-6 -51h-863zM559 1546l205 193h57l148 -193h-58l-118 162l-172 -162h-62z" />
<glyph unicode="&#xeb;" horiz-adv-x="1155" d="M102 0l203 1450h862l-8 -51h-811l-90 -649h750l-9 -56h-749l-90 -643h811l-6 -51h-863zM547 1657q3 20 20 34.5t37 14.5t32 -14.5t9 -34.5t-19 -34.5t-36 -14.5t-33 14.5t-10 34.5zM915 1657q3 20 20.5 34.5t37.5 14.5t32 -14.5t9 -34.5t-19.5 -34.5t-36.5 -14.5 t-33 14.5t-10 34.5z" />
<glyph unicode="&#xec;" horiz-adv-x="430" d="M102 0l203 1450h51l-202 -1450h-52zM246 1765h71l97 -211h-52z" />
<glyph unicode="&#xed;" horiz-adv-x="430" d="M102 0l203 1450h51l-202 -1450h-52zM285 1554l157 211h72l-178 -211h-51z" />
<glyph unicode="&#xee;" horiz-adv-x="430" d="M102 0l203 1450h51l-202 -1450h-52zM156 1546l204 193h58l147 -193h-57l-119 162l-172 -162h-61z" />
<glyph unicode="&#xef;" horiz-adv-x="430" d="M102 0l203 1450h51l-202 -1450h-52zM143 1657q3 20 20.5 34.5t37.5 14.5t32 -14.5t9 -34.5t-19.5 -34.5t-36.5 -14.5t-33 14.5t-10 34.5zM512 1657q3 20 20 34.5t37 14.5t32 -14.5t9 -34.5t-19 -34.5t-36 -14.5t-33 14.5t-10 34.5z" />
<glyph unicode="&#xf0;" horiz-adv-x="1302" d="M74 696l6 45h129l100 709h449q97 0 183 -26t151.5 -75.5t97.5 -129.5t18 -179l-90 -632q-13 -98 -67.5 -177.5t-133.5 -129t-172 -75.5t-190 -26h-449l97 696h-129zM164 51h397q118 0 224.5 38t186 121t95.5 198l90 632q12 87 -17.5 157.5t-89 113.5t-136.5 65.5 t-164 22.5h-398l-92 -658h256l-6 -45h-256z" />
<glyph unicode="&#xf1;" horiz-adv-x="1372" d="M102 0l203 1450h80l666 -1401l196 1401h51l-202 -1450h-88l-656 1384l-196 -1384h-54zM625 1626q20 43 57 71.5t80 28.5q35 0 68.5 -24.5t63.5 -49t56 -24.5q30 0 50.5 16.5t39.5 49.5l31 -13q-46 -98 -127 -98q-34 0 -66 25t-63 50t-61 25q-61 0 -101 -69z" />
<glyph unicode="&#xf2;" d="M127 391l92 670q11 79 49.5 146.5t95.5 115t130.5 81.5t154.5 50t166 16q103 0 194.5 -26.5t161.5 -75.5t105 -129t22 -178l-92 -670q-13 -98 -70.5 -178t-141.5 -130t-183.5 -76.5t-202.5 -26.5t-194.5 26.5t-161 76.5t-104 130t-21.5 178zM178 391q-12 -88 19.5 -158 t94.5 -113.5t145.5 -66t176.5 -22.5t183.5 23t166 66t128 113.5t63.5 157.5l92 670q13 92 -19.5 163t-97.5 113t-147.5 63t-177.5 21q-95 -1 -182.5 -22.5t-163 -64t-126 -113t-63.5 -160.5zM713 1765h71l97 -211h-52z" />
<glyph unicode="&#xf3;" d="M127 391l92 670q11 79 49.5 146.5t95.5 115t130.5 81.5t154.5 50t166 16q103 0 194.5 -26.5t161.5 -75.5t105 -129t22 -178l-92 -670q-13 -98 -70.5 -178t-141.5 -130t-183.5 -76.5t-202.5 -26.5t-194.5 26.5t-161 76.5t-104 130t-21.5 178zM178 391q-12 -88 19.5 -158 t94.5 -113.5t145.5 -66t176.5 -22.5t183.5 23t166 66t128 113.5t63.5 157.5l92 670q13 92 -19.5 163t-97.5 113t-147.5 63t-177.5 21q-95 -1 -182.5 -22.5t-163 -64t-126 -113t-63.5 -160.5zM752 1554l157 211h72l-178 -211h-51z" />
<glyph unicode="&#xf4;" d="M127 391l92 670q11 79 49.5 146.5t95.5 115t130.5 81.5t154.5 50t166 16q103 0 194.5 -26.5t161.5 -75.5t105 -129t22 -178l-92 -670q-13 -98 -70.5 -178t-141.5 -130t-183.5 -76.5t-202.5 -26.5t-194.5 26.5t-161 76.5t-104 130t-21.5 178zM178 391q-12 -88 19.5 -158 t94.5 -113.5t145.5 -66t176.5 -22.5t183.5 23t166 66t128 113.5t63.5 157.5l92 670q13 92 -19.5 163t-97.5 113t-147.5 63t-177.5 21q-95 -1 -182.5 -22.5t-163 -64t-126 -113t-63.5 -160.5zM623 1546l204 193h58l147 -193h-57l-119 162l-172 -162h-61z" />
<glyph unicode="&#xf5;" d="M127 391l92 670q11 79 49.5 146.5t95.5 115t130.5 81.5t154.5 50t166 16q103 0 194.5 -26.5t161.5 -75.5t105 -129t22 -178l-92 -670q-13 -98 -70.5 -178t-141.5 -130t-183.5 -76.5t-202.5 -26.5t-194.5 26.5t-161 76.5t-104 130t-21.5 178zM178 391q-12 -88 19.5 -158 t94.5 -113.5t145.5 -66t176.5 -22.5t183.5 23t166 66t128 113.5t63.5 157.5l92 670q13 92 -19.5 163t-97.5 113t-147.5 63t-177.5 21q-95 -1 -182.5 -22.5t-163 -64t-126 -113t-63.5 -160.5zM623 1626q20 43 57 71.5t80 28.5q35 0 68.5 -24.5t63.5 -49t56 -24.5 q30 0 50.5 16.5t39.5 49.5l31 -13q-46 -98 -127 -98q-34 0 -66 25t-63 50t-61 25q-61 0 -101 -69z" />
<glyph unicode="&#xf6;" d="M127 391l92 670q11 79 49.5 146.5t95.5 115t130.5 81.5t154.5 50t166 16q103 0 194.5 -26.5t161.5 -75.5t105 -129t22 -178l-92 -670q-13 -98 -70.5 -178t-141.5 -130t-183.5 -76.5t-202.5 -26.5t-194.5 26.5t-161 76.5t-104 130t-21.5 178zM178 391q-12 -88 19.5 -158 t94.5 -113.5t145.5 -66t176.5 -22.5t183.5 23t166 66t128 113.5t63.5 157.5l92 670q13 92 -19.5 163t-97.5 113t-147.5 63t-177.5 21q-95 -1 -182.5 -22.5t-163 -64t-126 -113t-63.5 -160.5zM610 1657q3 20 20.5 34.5t37.5 14.5t32 -14.5t9 -34.5t-19.5 -34.5t-36.5 -14.5 t-33 14.5t-10 34.5zM979 1657q3 20 20 34.5t37 14.5t32 -14.5t9 -34.5t-19 -34.5t-36 -14.5t-33 14.5t-10 34.5z" />
<glyph unicode="&#xf7;" horiz-adv-x="1179" d="M162 655l8 50h858l-8 -50h-858zM496 356q3 27 22.5 43.5t46.5 18.5q26 0 41 -18t12 -44t-23 -43.5t-46 -17.5t-41 17.5t-12 43.5zM584 981q3 27 22.5 43t46.5 18q26 0 41.5 -17.5t12.5 -43.5q-5 -26 -24.5 -43.5t-45.5 -17.5t-41.5 17.5t-11.5 43.5z" />
<glyph unicode="&#xf8;" d="M129 408l90 636q14 98 71 178t140.5 129.5t182.5 76t202 26.5q139 0 246 -43l80 145l37 -14l-80 -145q106 -59 161 -149t39 -204l-90 -636q-13 -98 -70.5 -178.5t-141.5 -130.5t-183.5 -76.5t-202.5 -26.5q-99 0 -239 43l-82 -152l-39 11l82 155q-109 59 -164 148 t-39 207zM178 408q-25 -186 180 -312l680 1274q-43 17 -88.5 25.5t-68 9t-74.5 0.5q-95 -1 -183 -23t-164 -64t-127.5 -113t-64.5 -161zM395 84q136 -39 223 -39q93 0 182.5 23t166 67t129 115t65.5 158l90 636q27 184 -178 310z" />
<glyph unicode="&#xf9;" horiz-adv-x="1376" d="M147 397l148 1053h51l-147 -1053q-13 -89 16 -161t88 -116t136 -67.5t165 -23.5q87 0 171 23.5t155.5 67.5t121 116t62.5 161l148 1053h51l-148 -1053q-14 -100 -69 -181t-134.5 -131.5t-173 -77.5t-190.5 -27t-183.5 27t-152 77.5t-97.5 131.5t-18 181zM694 1765h72 l96 -211h-51z" />
<glyph unicode="&#xfa;" horiz-adv-x="1376" d="M147 397l148 1053h51l-147 -1053q-13 -89 16 -161t88 -116t136 -67.5t165 -23.5q87 0 171 23.5t155.5 67.5t121 116t62.5 161l148 1053h51l-148 -1053q-14 -100 -69 -181t-134.5 -131.5t-173 -77.5t-190.5 -27t-183.5 27t-152 77.5t-97.5 131.5t-18 181zM733 1554 l158 211h72l-179 -211h-51z" />
<glyph unicode="&#xfb;" horiz-adv-x="1376" d="M147 397l148 1053h51l-147 -1053q-13 -89 16 -161t88 -116t136 -67.5t165 -23.5q87 0 171 23.5t155.5 67.5t121 116t62.5 161l148 1053h51l-148 -1053q-14 -100 -69 -181t-134.5 -131.5t-173 -77.5t-190.5 -27t-183.5 27t-152 77.5t-97.5 131.5t-18 181zM604 1546 l205 193h57l148 -193h-58l-118 162l-172 -162h-62z" />
<glyph unicode="&#xfc;" horiz-adv-x="1376" d="M147 397l148 1053h51l-147 -1053q-13 -89 16 -161t88 -116t136 -67.5t165 -23.5q87 0 171 23.5t155.5 67.5t121 116t62.5 161l148 1053h51l-148 -1053q-14 -100 -69 -181t-134.5 -131.5t-173 -77.5t-190.5 -27t-183.5 27t-152 77.5t-97.5 131.5t-18 181zM592 1657 q3 20 20 34.5t37 14.5t32 -14.5t9 -34.5t-19 -34.5t-36 -14.5t-33 14.5t-10 34.5zM961 1657q3 20 20 34.5t37 14.5t32 -14.5t9 -34.5t-19 -34.5t-36 -14.5t-33 14.5t-10 34.5z" />
<glyph unicode="&#xfd;" horiz-adv-x="1116" d="M150 1450h61l346 -817l590 817h63l-637 -875l-79 -575h-52l80 575zM635 1554l158 211h71l-178 -211h-51z" />
<glyph unicode="&#xfe;" horiz-adv-x="1232" d="M100 0l205 1450h51l-34 -246h460q86 0 156 -25.5t115 -68t75.5 -99.5t37 -119.5t-0.5 -127.5q-12 -81 -51 -156.5t-101 -137.5t-153 -99.5t-198 -38.5h-463l-47 -332h-52zM207 383h461q90 0 170 33.5t136.5 88t93 122.5t46.5 139q6 58 0.5 113.5t-32.5 105.5t-66 88 t-101.5 60.5t-138.5 23.5h-461z" />
<glyph unicode="&#xff;" horiz-adv-x="1116" d="M150 1450h61l346 -817l590 817h63l-637 -875l-79 -575h-52l80 575zM494 1657q3 20 20 34.5t37 14.5t32 -14.5t9 -34.5t-19 -34.5t-36 -14.5t-33 14.5t-10 34.5zM862 1657q3 20 20.5 34.5t37.5 14.5t32 -14.5t9 -34.5t-19.5 -34.5t-36.5 -14.5t-33 14.5t-10 34.5z" />
<glyph unicode="&#x152;" horiz-adv-x="1912" d="M125 414l88 643q18 131 105 226t213 141t274 46q74 0 157 -28t148 -88l14 96h797l-6 -47h-748l-92 -655h684l-8 -50h-684l-90 -649h747l-6 -49h-796l12 84q-179 -104 -344 -104q-134 0 -245.5 52t-174.5 153t-45 229zM176 414q-12 -88 19 -161.5t93 -121t145 -74 t175 -26.5q132 0 332 108l166 1174q-146 111 -305 108q-94 0 -182.5 -22.5t-164 -65.5t-126.5 -114.5t-64 -161.5z" />
<glyph unicode="&#x153;" horiz-adv-x="1912" d="M125 414l88 643q18 131 105 226t213 141t274 46q74 0 157 -28t148 -88l14 96h797l-6 -47h-748l-92 -655h684l-8 -50h-684l-90 -649h747l-6 -49h-796l12 84q-179 -104 -344 -104q-134 0 -245.5 52t-174.5 153t-45 229zM176 414q-12 -88 19 -161.5t93 -121t145 -74 t175 -26.5q132 0 332 108l166 1174q-146 111 -305 108q-94 0 -182.5 -22.5t-164 -65.5t-126.5 -114.5t-64 -161.5z" />
<glyph unicode="&#x178;" horiz-adv-x="1116" d="M150 1450h61l346 -817l590 817h63l-637 -875l-79 -575h-52l80 575zM494 1657q3 20 20 34.5t37 14.5t32 -14.5t9 -34.5t-19 -34.5t-36 -14.5t-33 14.5t-10 34.5zM862 1657q3 20 20.5 34.5t37.5 14.5t32 -14.5t9 -34.5t-19.5 -34.5t-36.5 -14.5t-33 14.5t-10 34.5z" />
<glyph unicode="&#x2c6;" horiz-adv-x="573" d="M98 1546l205 193h57l148 -193h-57l-119 162l-172 -162h-62z" />
<glyph unicode="&#x2dc;" horiz-adv-x="555" d="M117 1626q20 43 57 71.5t80 28.5q35 0 68.5 -24.5t63.5 -49t56 -24.5q30 0 50.5 16.5t39.5 49.5l31 -13q-46 -98 -127 -98q-34 0 -66 25t-63 50t-61 25q-61 0 -101 -69z" />
<glyph unicode="&#x2000;" horiz-adv-x="882" />
<glyph unicode="&#x2001;" horiz-adv-x="1765" />
<glyph unicode="&#x2002;" horiz-adv-x="882" />
<glyph unicode="&#x2003;" horiz-adv-x="1765" />
<glyph unicode="&#x2004;" horiz-adv-x="588" />
<glyph unicode="&#x2005;" horiz-adv-x="441" />
<glyph unicode="&#x2006;" horiz-adv-x="294" />
<glyph unicode="&#x2007;" horiz-adv-x="294" />
<glyph unicode="&#x2008;" horiz-adv-x="220" />
<glyph unicode="&#x2009;" horiz-adv-x="353" />
<glyph unicode="&#x200a;" horiz-adv-x="98" />
<glyph unicode="&#x2010;" horiz-adv-x="858" d="M147 590l7 49h551l-7 -49h-551z" />
<glyph unicode="&#x2011;" horiz-adv-x="858" d="M147 590l7 49h551l-7 -49h-551z" />
<glyph unicode="&#x2012;" horiz-adv-x="858" d="M147 590l7 49h551l-7 -49h-551z" />
<glyph unicode="&#x2013;" horiz-adv-x="1187" d="M147 590l7 47h880l-6 -47h-881z" />
<glyph unicode="&#x2014;" horiz-adv-x="2129" d="M143 561l15 105h1822l-14 -105h-1823zM160 575h1794l10 76h-1794zM176 590h1766l6 47h-1766z" />
<glyph unicode="&#x2018;" horiz-adv-x="413" d="M197 1090l163 360h52l-144 -360h-71z" />
<glyph unicode="&#x2019;" horiz-adv-x="415" d="M199 1087l149 363h76l-180 -363h-45z" />
<glyph unicode="&#x201a;" horiz-adv-x="378" d="M-63 -248l151 316h78l-182 -316h-47z" />
<glyph unicode="&#x201c;" horiz-adv-x="645" d="M197 1090q26 54 84.5 174.5t89.5 187.5h47l-148 -362h-73zM424 1090q26 54 84.5 174.5t89.5 187.5h47l-147 -362h-74z" />
<glyph unicode="&#x201d;" horiz-adv-x="628" d="M197 1075l133 375h71q-7 -17 -67.5 -160t-93.5 -215h-43zM426 1075l133 375h72q-154 -357 -162 -375h-43z" />
<glyph unicode="&#x201e;" horiz-adv-x="653" d="M-59 -248l151 318h76l-180 -318h-47zM199 -248l151 318h84l-188 -318h-47z" />
<glyph unicode="&#x2022;" horiz-adv-x="737" d="M195 725q10 76 73 131t140 55q76 0 123 -54.5t36 -131.5q-10 -76 -73 -131t-140 -55q-76 0 -123 54.5t-36 131.5z" />
<glyph unicode="&#x2026;" horiz-adv-x="1236" d="M78 59q3 26 24.5 45t47.5 19t42 -19t13 -45q-4 -26 -26 -44.5t-48 -18.5t-41.5 18.5t-11.5 44.5zM475 61q3 26 24.5 45t47.5 19t42 -19t13 -45q-4 -26 -26 -44.5t-48 -18.5t-41.5 18.5t-11.5 44.5zM883 66q3 26 24 44.5t47 18.5t42.5 -18.5t13.5 -44.5t-24.5 -45 t-47.5 -19t-42 19t-13 45z" />
<glyph unicode="&#x202f;" horiz-adv-x="353" />
<glyph unicode="&#x2039;" horiz-adv-x="520" d="M92 604l301 371q1 -1 18 -10t21 -13q3 -3 -282 -348l186 -344l-45 -22z" />
<glyph unicode="&#x203a;" horiz-adv-x="520" d="M84 256q-3 3 283 348q-174 316 -187 344l43 23l199 -367l-301 -371l-17 9q-16 10 -20 14z" />
<glyph unicode="&#x205f;" horiz-adv-x="441" />
<glyph unicode="&#x20ac;" horiz-adv-x="1214" d="M86 580l14 43h117l25 168h-117l16 45h107l31 223q13 98 64.5 177.5t125.5 129.5t160.5 77t175.5 27q128 0 233.5 -55.5t153.5 -157.5l-45 -24q-41 91 -138.5 140.5t-209.5 49.5q-81 0 -158 -22.5t-143 -66t-111.5 -114.5t-58.5 -161l-31 -223h555l-16 -45h-545l-25 -168 h561l-16 -43h-551l-24 -191q-11 -87 14.5 -157.5t77.5 -114t121.5 -67t148.5 -23.5q118 0 227 48.5t185 141.5l34 -24q-76 -102 -198.5 -157.5t-253.5 -55.5q-88 0 -165.5 26.5t-136.5 75.5t-88 129t-16 178l25 191h-125z" />
<glyph unicode="&#x2122;" horiz-adv-x="1673" d="M176 1419l4 31h570l-5 -31h-266l-98 -698h-37l98 698h-266zM815 721l103 729h65l199 -612q122 205 205.5 342.5t117.5 192.5t47 77h66l-102 -729h-37l100 706h-6l-371 -612h-49l-197 606h-8q-11 -83 -47 -337.5t-51 -362.5h-35z" />
<glyph unicode="&#x25fc;" horiz-adv-x="1454" d="M0 0v1454h1454v-1454h-1454z" />
</font>
</defs>
</svg>
